<?xml version="1.0" encoding="UTF-8"?>
<svg xmlns="http://www.w3.org/2000/svg" xmlns:xlink="http://www.w3.org/1999/xlink" width="600" height="600" viewBox="0 0 600 600">
<rect x="-60" y="-60" width="720" height="720" fill="rgb(100%, 100%, 100%)" fill-opacity="1"/>
<path fill="none" stroke-width="0.1" stroke-linecap="butt" stroke-linejoin="miter" stroke="rgb(0%, 0%, 50%)" stroke-opacity="1" stroke-miterlimit="10" d="M 13 0.00546875 L 13.000195 0.0111328 L 13.000391 0.0166016 L 13.000586 0.0222656 L 13.000977 0.0277344 L 13.001563 0.0333984 L 13.001953 0.0388672 L 13.002734 0.0445313 L 13.00332 0.0501953 L 13.004102 0.0556641 L 13.005078 0.0613281 L 13.005859 0.0669922 L 13.007031 0.0726563 L 13.008008 0.0783203 L 13.009375 0.0837891 L 13.010547 0.0896484 L 13.013281 0.100977 L 13.014844 0.106641 L 13.016406 0.1125 L 13.018164 0.118164 L 13.019922 0.124023 L 13.02168 0.129688 L 13.023633 0.135547 L 13.025781 0.141406 L 13.027734 0.147266 L 13.029883 0.153125 L 13.032227 0.15918 L 13.03457 0.165039 L 13.036914 0.171094 L 13.044531 0.189258 L 13.05 0.201367 L 13.055859 0.213867 L 13.058789 0.219922 L 13.061914 0.226367 L 13.065039 0.232617 L 13.068359 0.238867 L 13.075 0.251758 L 13.082031 0.264648 L 13.085742 0.271289 L 13.089258 0.27793 L 13.093164 0.28457 L 13.096875 0.291211 L 13.100781 0.298047 L 13.104688 0.304688 L 13.112891 0.318359 L 13.117188 0.325391 L 13.121289 0.332422 L 13.125586 0.339453 L 13.13457 0.353516 L 13.143555 0.367969 L 13.148242 0.375391 L 13.15293 0.382617 L 13.157617 0.390039 L 13.1625 0.397461 L 13.167383 0.405078 L 13.172461 0.412695 L 13.177344 0.420313 L 13.182422 0.42793 L 13.187695 0.435742 L 13.192773 0.443555 L 13.198047 0.451563 L 13.203516 0.459375 L 13.208789 0.467383 L 13.214258 0.475586 L 13.219727 0.483594 L 13.225195 0.491992 L 13.230859 0.500195 L 13.242188 0.516992 L 13.248047 0.525391 L 13.259766 0.542578 L 13.265625 0.551367 L 13.27168 0.560156 L 13.277539 0.568945 L 13.283789 0.57793 L 13.295898 0.595898 L 13.308398 0.614258 L 13.314844 0.623633 L 13.321094 0.633008 L 13.327539 0.642383 L 13.34043 0.661523 L 13.346875 0.671289 L 13.353516 0.681055 L 13.360156 0.691016 L 13.366602 0.700781 L 13.373438 0.710938 L 13.380078 0.720898 L 13.386914 0.73125 L 13.393555 0.741406 L 13.400391 0.751758 L 13.407227 0.762305 L 13.414062 0.772656 L 13.421094 0.783398 L 13.42793 0.793945 L 13.434961 0.804883 L 13.441992 0.815625 L 13.449023 0.826563 L 13.463086 0.848828 L 13.470313 0.859961 L 13.477344 0.871289 L 13.48457 0.882617 L 13.491797 0.894141 L 13.498828 0.905664 L 13.506055 0.917383 L 13.513477 0.929102 L 13.535156 0.964844 L 13.542578 0.976953 L 13.549805 0.989258 L 13.564648 1.013867 L 13.571875 1.026367 L 13.579297 1.039062 L 13.586719 1.051562 L 13.608984 1.090234 L 13.623828 1.116406 L 13.638672 1.142969 L 13.653516 1.169922 L 13.668359 1.197266 L 13.675977 1.211133 L 13.683398 1.225 L 13.698242 1.253125 L 13.720508 1.295898 L 13.72793 1.310547 L 13.735352 1.325 L 13.742578 1.339648 L 13.757422 1.369336 L 13.764844 1.384375 L 13.77207 1.399414 L 13.779492 1.414648 L 13.786719 1.429883 L 13.793945 1.445312 L 13.801367 1.460742 L 13.808594 1.476172 L 13.81582 1.491797 L 13.830273 1.523438 L 13.837305 1.539453 L 13.844531 1.555469 L 13.851562 1.571484 L 13.858789 1.587891 L 13.86582 1.604102 L 13.872852 1.620508 L 13.879883 1.637109 L 13.886719 1.653711 L 13.89375 1.670313 L 13.900586 1.687305 L 13.907617 1.704102 L 13.914453 1.721094 L 13.921289 1.738281 L 13.92793 1.755469 L 13.934766 1.772656 L 13.941406 1.790039 L 13.948047 1.807617 L 13.954688 1.825 L 13.967969 1.860547 L 13.974414 1.87832 L 13.987305 1.914258 L 13.993555 1.932422 L 14 1.950586 L 14.0125 1.987305 L 14.018555 2.005859 L 14.024805 2.024414 L 14.036914 2.061914 L 14.042773 2.080664 L 14.048828 2.099609 L 14.054688 2.11875 L 14.060352 2.137695 L 14.066211 2.157031 L 14.077539 2.195703 L 14.083008 2.215039 L 14.088672 2.23457 L 14.094141 2.254297 L 14.099414 2.274023 L 14.104883 2.29375 L 14.109961 2.313672 L 14.115234 2.333789 L 14.120313 2.353711 L 14.125391 2.373828 L 14.130469 2.394141 L 14.140234 2.434766 L 14.145117 2.455273 L 14.149805 2.475781 L 14.154492 2.496484 L 14.163477 2.537891 L 14.167969 2.558789 L 14.172266 2.579688 L 14.180859 2.621875 L 14.184961 2.642969 L 14.189063 2.664258 L 14.192969 2.685547 L 14.196875 2.707031 L 14.208008 2.771484 L 14.211523 2.793164 L 14.218555 2.836914 L 14.221875 2.858789 L 14.225 2.880664 L 14.23125 2.924805 L 14.23418 2.946875 L 14.237109 2.969141 L 14.239844 2.991406 L 14.242578 3.013867 L 14.245117 3.036133 L 14.247656 3.058594 L 14.250195 3.08125 L 14.252539 3.103711 L 14.254688 3.126367 L 14.256836 3.149219 L 14.258984 3.171875 L 14.260938 3.194727 L 14.262695 3.217578 L 14.266211 3.263672 L 14.267773 3.286719 L 14.269141 3.309766 L 14.270508 3.333008 L 14.271875 3.356055 L 14.273047 3.379297 L 14.274023 3.402734 L 14.275 3.425977 L 14.275977 3.449414 L 14.276758 3.472852 L 14.277344 3.496484 L 14.27793 3.519922 L 14.278516 3.543555 L 14.278906 3.567187 L 14.279102 3.59082 L 14.279297 3.614648 L 14.279297 3.662109 L 14.279102 3.685938 L 14.278711 3.709961 L 14.27832 3.733789 L 14.27793 3.757812 L 14.277344 3.781836 L 14.275 3.853906 L 14.273828 3.878125 L 14.272656 3.902148 L 14.271484 3.926367 L 14.26875 3.974805 L 14.267188 3.999219 L 14.26543 4.023438 L 14.263672 4.047852 L 14.261719 4.07207 L 14.25957 4.096484 L 14.257617 4.120898 L 14.25293 4.169727 L 14.250391 4.194141 L 14.247852 4.21875 L 14.242383 4.267578 L 14.239453 4.292188 L 14.236328 4.316797 L 14.233203 4.341211 L 14.226562 4.39043 L 14.223047 4.415039 L 14.215625 4.464258 L 14.207813 4.513477 L 14.199609 4.562695 L 14.195312 4.587305 L 14.186328 4.636523 L 14.181641 4.661133 L 14.176758 4.685938 L 14.166992 4.735156 L 14.151172 4.808984 L 14.145703 4.833594 L 14.134375 4.882812 L 14.128516 4.907422 L 14.122656 4.931836 L 14.116602 4.956445 L 14.104102 5.005664 L 14.091211 5.054492 L 14.08457 5.079102 L 14.070898 5.12793 L 14.056836 5.176758 L 14.042383 5.225586 L 14.034961 5.25 L 14.019727 5.298438 L 14.011914 5.322852 L 13.995898 5.371289 L 13.987891 5.395313 L 13.979688 5.419531 L 13.971289 5.443555 L 13.962891 5.467773 L 13.954297 5.491797 L 13.945508 5.51582 L 13.936719 5.539648 L 13.92793 5.563672 L 13.91875 5.5875 L 13.909766 5.611523 L 13.900391 5.635156 L 13.881641 5.682813 L 13.87207 5.706445 L 13.842773 5.777344 L 13.832617 5.800781 L 13.822656 5.824219 L 13.801953 5.871094 L 13.791602 5.894336 L 13.770508 5.94082 L 13.759766 5.964063 L 13.737891 6.010156 L 13.726758 6.033203 L 13.715625 6.056055 L 13.704492 6.079102 L 13.692969 6.101953 L 13.681641 6.124609 L 13.669922 6.147266 L 13.658398 6.169922 L 13.64668 6.192578 L 13.622852 6.2375 L 13.610742 6.259961 L 13.598633 6.282227 L 13.574023 6.326758 L 13.549023 6.370898 L 13.536328 6.392969 L 13.523633 6.414844 L 13.497852 6.458594 L 13.47168 6.501953 L 13.458594 6.523438 L 13.445312 6.544922 L 13.431836 6.566406 L 13.418555 6.587695 L 13.404883 6.608984 L 13.363867 6.672266 L 13.35 6.693164 L 13.321875 6.734961 L 13.307813 6.755664 L 13.279297 6.79668 L 13.264844 6.817188 L 13.235938 6.857813 L 13.221289 6.878125 L 13.206641 6.898242 L 13.162109 6.958008 L 13.132031 6.997461 L 13.101562 7.036523 L 13.071094 7.075195 L 13.055664 7.094336 L 13.040039 7.113477 L 13.024609 7.132617 L 13.008984 7.151563 L 12.993359 7.170313 L 12.961719 7.207813 L 12.945898 7.226367 L 12.897852 7.281445 L 12.881836 7.299609 L 12.849414 7.335547 L 12.833008 7.353516 L 12.816797 7.371289 L 12.800391 7.388867 L 12.783789 7.406445 L 12.767383 7.424023 L 12.750781 7.441406 L 12.717578 7.475781 L 12.700781 7.492773 L 12.68418 7.509766 L 12.667383 7.526563 L 12.650391 7.543359 L 12.633594 7.559961 L 12.616602 7.576563 L 12.582617 7.609375 L 12.565625 7.625586 L 12.548438 7.641797 L 12.53125 7.657813 L 12.514258 7.673633 L 12.496875 7.689453 L 12.479688 7.705273 L 12.4625 7.720703 L 12.445117 7.736328 L 12.427734 7.751758 L 12.410352 7.766992 L 12.392969 7.782031 L 12.375586 7.797266 L 12.34043 7.826953 L 12.323047 7.841797 L 12.305469 7.856445 L 12.270313 7.885352 L 12.252539 7.899609 L 12.234961 7.913867 L 12.217188 7.92793 L 12.199609 7.941992 L 12.181836 7.955859 L 12.128516 7.996875 L 12.110742 8.010156 L 12.092969 8.023633 L 12.039648 8.062891 L 12.02168 8.075781 L 12.003906 8.088672 L 11.985938 8.101367 L 11.968164 8.113867 L 11.950195 8.126367 L 11.932422 8.138672 L 11.914453 8.150977 L 11.89668 8.163086 L 11.878711 8.175195 L 11.860938 8.187109 L 11.825 8.210547 L 11.807227 8.22207 L 11.789258 8.233594 L 11.771484 8.245117 L 11.753516 8.25625 L 11.735742 8.267578 L 11.717773 8.278516 L 11.7 8.289453 L 11.682031 8.300391 L 11.664258 8.311133 L 11.610938 8.342773 L 11.592969 8.353125 L 11.575195 8.363281 L 11.557617 8.373438 L 11.52207 8.393359 L 11.504297 8.403125 L 11.486719 8.412891 L 11.468945 8.422461 L 11.451367 8.432031 L 11.433789 8.441406 L 11.381055 8.468945 L 11.363477 8.47793 L 11.346094 8.486719 L 11.328516 8.495508 L 11.311133 8.504297 L 11.29375 8.512891 L 11.241602 8.538086 L 11.224414 8.546289 L 11.207227 8.554297 L 11.189844 8.562305 L 11.172656 8.570312 L 11.155664 8.578125 L 11.138477 8.585742 L 11.104492 8.600977 L 11.070508 8.61582 L 11.053516 8.623047 L 11.036719 8.630078 L 11.019922 8.637305 L 11.003125 8.644141 L 10.986523 8.651172 L 10.969727 8.657813 L 10.953125 8.664648 L 10.936523 8.671289 L 10.919922 8.677734 L 10.887109 8.690625 L 10.854297 8.703125 L 10.821875 8.715234 L 10.805664 8.721094 L 10.789648 8.726953 L 10.773438 8.732813 L 10.757422 8.738477 L 10.741602 8.744141 L 10.725586 8.749609 L 10.709766 8.755078 L 10.693945 8.760352 L 10.662695 8.770898 L 10.631445 8.781055 L 10.616016 8.786133 L 10.600586 8.791016 L 10.585352 8.795898 L 10.569922 8.800586 L 10.554688 8.805469 L 10.539648 8.809961 L 10.524609 8.814648 L 10.50957 8.819141 L 10.494531 8.823438 L 10.479688 8.82793 L 10.464844 8.832227 L 10.450195 8.836328 L 10.435352 8.840625 L 10.420898 8.844531 L 10.40625 8.848633 L 10.377344 8.856445 L 10.348828 8.864258 L 10.334766 8.867969 L 10.320508 8.871484 L 10.306641 8.875195 L 10.292578 8.878711 L 10.264844 8.885742 L 10.2375 8.892383 L 10.224023 8.895703 L 10.210547 8.898828 L 10.19707 8.902148 L 10.183789 8.905273 L 10.170508 8.908203 L 10.157227 8.911328 L 10.131055 8.917188 L 10.105273 8.923047 L 10.067188 8.93125 L 10.054688 8.933984 L 10.042188 8.936523 L 10.029883 8.939258 L 10.017578 8.941797 L 10.005469 8.944336 L 9.993164 8.946875 L 9.98125 8.949219 L 9.969336 8.951758 L 9.957422 8.954102 L 9.922266 8.961133 L 9.910742 8.963281 L 9.899219 8.965625 L 9.887891 8.967773 L 9.876758 8.969922 L 9.86543 8.97207 L 9.854297 8.974219 L 9.832422 8.978516 L 9.821484 8.980469 L 9.810742 8.982617 L 9.800195 8.98457 L 9.789453 8.986719 L 9.779102 8.988672 L 9.768555 8.990625 L 9.758203 8.992578 L 9.727734 8.998438 L 9.717773 9.000391 L 9.708008 9.002148 L 9.698047 9.004102 L 9.688477 9.006055 L 9.678711 9.007812 L 9.669141 9.009766 L 9.659766 9.011719 L 9.650391 9.013477 L 9.641016 9.01543 L 9.631836 9.017188 L 9.622852 9.019141 L 9.613672 9.020898 L 9.604883 9.022852 L 9.595898 9.024609 L 9.587109 9.026563 L 9.578516 9.02832 L 9.569922 9.030273 L 9.561328 9.032031 L 9.55293 9.033984 L 9.544531 9.035742 L 9.528125 9.039648 L 9.512109 9.043555 L 9.504102 9.045313 L 9.488477 9.049219 L 9.480859 9.051367 L 9.473242 9.05332 L 9.458398 9.057227 L 9.450977 9.059375 L 9.44375 9.061328 L 9.436523 9.063477 L 9.422461 9.067773 L 9.401953 9.074219 L 9.395313 9.076563 L 9.388672 9.078711 L 9.382031 9.081055 L 9.375586 9.083398 L 9.356836 9.09043 L 9.350586 9.092969 L 9.344531 9.095313 L 9.338672 9.097852 L 9.332617 9.100391 L 9.326758 9.10293 L 9.321094 9.105664 L 9.31543 9.108203 L 9.309766 9.110938 L 9.293359 9.119141 L 9.277539 9.12793 L 9.272461 9.130859 L 9.267383 9.133984 L 9.2625 9.136914 L 9.252734 9.143164 L 9.233984 9.156445 L 9.229492 9.159766 L 9.225195 9.163281 L 9.220703 9.166797 L 9.216406 9.170313 L 9.212109 9.174023 L 9.199805 9.185156 L 9.195703 9.189063 L 9.187891 9.196875 L 9.18418 9.200977 L 9.180273 9.205078 L 9.172852 9.213281 L 9.169336 9.217578 L 9.16582 9.22207 L 9.162305 9.226367 L 9.158789 9.230859 L 9.155469 9.235352 L 9.152148 9.240039 L 9.148828 9.244531 L 9.145508 9.249414 L 9.142383 9.254102 L 9.136133 9.263867 L 9.133008 9.268945 L 9.124219 9.28418 L 9.121289 9.289453 L 9.118359 9.294922 L 9.110156 9.311328 L 9.107422 9.316992 L 9.104883 9.322656 L 9.102344 9.328516 L 9.099609 9.334375 L 9.09707 9.340234 L 9.094727 9.346289 L 9.092188 9.352344 L 9.089844 9.358594 L 9.087305 9.364844 L 9.084961 9.371094 L 9.082617 9.377539 L 9.080469 9.383984 L 9.078125 9.39043 L 9.075781 9.39707 L 9.067188 9.424414 L 9.065039 9.431445 L 9.060742 9.445898 L 9.058789 9.453125 L 9.056641 9.460547 L 9.052734 9.475391 L 9.050781 9.483008 L 9.048828 9.49082 L 9.046875 9.498438 L 9.044922 9.506445 L 9.042969 9.514258 L 9.041016 9.522266 L 9.037109 9.538672 L 9.035352 9.546875 L 9.033398 9.555273 L 9.031641 9.563672 L 9.027734 9.580859 L 9.025977 9.589648 L 9.024023 9.598438 L 9.022266 9.607227 L 9.020313 9.616211 L 9.018555 9.625391 L 9.016602 9.63457 L 9.014844 9.64375 L 9.012891 9.65293 L 9.011133 9.6625 L 9.00918 9.671875 L 9.007422 9.681445 L 9.003516 9.700977 L 9.001758 9.710742 L 8.997852 9.730664 L 8.991992 9.761133 L 8.990039 9.771484 L 8.986133 9.792578 L 8.983984 9.803125 L 8.982031 9.813867 L 8.979883 9.824609 L 8.97793 9.835547 L 8.973633 9.857422 L 8.971484 9.868555 L 8.967188 9.891211 L 8.964844 9.902539 L 8.962695 9.914062 L 8.960352 9.925586 L 8.95332 9.960742 L 8.948633 9.98457 L 8.943555 10.008789 L 8.935938 10.045703 L 8.933203 10.058203 L 8.930469 10.070898 L 8.927734 10.083398 L 8.925 10.096094 L 8.922266 10.108984 L 8.916406 10.134766 L 8.910547 10.160938 L 8.901172 10.200781 L 8.898047 10.214258 L 8.894727 10.227734 L 8.884766 10.26875 L 8.877734 10.296484 L 8.874219 10.310547 L 8.866797 10.338672 L 8.859375 10.367188 L 8.855469 10.381445 L 8.851562 10.395898 L 8.847461 10.410352 L 8.843555 10.425 L 8.839453 10.439648 L 8.835156 10.454297 L 8.822266 10.498828 L 8.817773 10.513672 L 8.813281 10.528711 L 8.808789 10.543945 L 8.799414 10.574414 L 8.794531 10.589648 L 8.784766 10.620508 L 8.774609 10.651367 L 8.769531 10.666992 L 8.764258 10.682813 L 8.758984 10.698438 L 8.748047 10.730078 L 8.742383 10.746094 L 8.736914 10.762109 L 8.731055 10.778125 L 8.725391 10.794141 L 8.719336 10.810352 L 8.713477 10.826367 L 8.707422 10.842773 L 8.701367 10.858984 L 8.688867 10.891797 L 8.675977 10.924609 L 8.656055 10.974414 L 8.649219 10.991211 L 8.642188 11.007812 L 8.635156 11.024609 L 8.628125 11.041602 L 8.620898 11.058398 L 8.613672 11.075391 L 8.60625 11.092188 L 8.598828 11.10918 L 8.591211 11.126367 L 8.583594 11.143359 L 8.575781 11.160547 L 8.567969 11.177539 L 8.560156 11.194727 L 8.552148 11.212109 L 8.535742 11.246484 L 8.518945 11.28125 L 8.501758 11.316016 L 8.493164 11.333594 L 8.484375 11.350977 L 8.475391 11.368555 L 8.466406 11.385938 L 8.448047 11.421094 L 8.438672 11.438672 L 8.429297 11.456445 L 8.410156 11.491602 L 8.390625 11.527148 L 8.380664 11.544727 L 8.350195 11.598047 L 8.339844 11.61582 L 8.329297 11.633594 L 8.31875 11.651563 L 8.297266 11.687109 L 8.286523 11.705078 L 8.275391 11.722852 L 8.264258 11.74082 L 8.253125 11.758594 L 8.241797 11.776563 L 8.230469 11.794336 L 8.218945 11.812305 L 8.207227 11.830078 L 8.195508 11.848047 L 8.183594 11.86582 L 8.17168 11.883789 L 8.15957 11.901758 L 8.147461 11.919531 L 8.135156 11.9375 L 8.122852 11.955273 L 8.110352 11.973242 L 8.097656 11.991016 L 8.084961 12.008984 L 8.05918 12.044531 L 8.046289 12.0625 L 8.006445 12.11582 L 7.992969 12.133594 L 7.951953 12.186914 L 7.937891 12.204492 L 7.924023 12.222266 L 7.909766 12.239844 L 7.895508 12.257617 L 7.88125 12.275195 L 7.866797 12.292773 L 7.822852 12.345508 L 7.808008 12.362891 L 7.792969 12.380469 L 7.77793 12.397852 L 7.762695 12.415234 L 7.716406 12.467383 L 7.700781 12.48457 L 7.65332 12.536133 L 7.637109 12.55332 L 7.621094 12.570508 L 7.604688 12.5875 L 7.588477 12.604492 L 7.571875 12.621484 L 7.555273 12.638281 L 7.538672 12.655273 L 7.505078 12.688867 L 7.488086 12.705664 L 7.453711 12.738867 L 7.418945 12.77207 L 7.401563 12.788477 L 7.383984 12.804883 L 7.348438 12.837695 L 7.3125 12.870117 L 7.294336 12.886328 L 7.276172 12.902344 L 7.258008 12.918555 L 7.239453 12.934375 L 7.221094 12.950391 L 7.202539 12.966211 L 7.183789 12.982031 L 7.165039 12.997656 L 7.146094 13.013477 L 7.127148 13.028906 L 7.108203 13.044531 L 7.089063 13.059961 L 7.069727 13.075391 L 7.050391 13.090625 L 7.031055 13.106055 L 7.011523 13.121094 L 6.991797 13.136328 L 6.97207 13.151367 L 6.952344 13.166211 L 6.932422 13.18125 L 6.9125 13.196094 L 6.852148 13.240039 L 6.831836 13.254492 L 6.811328 13.268945 L 6.791016 13.283398 L 6.770313 13.297656 L 6.749805 13.311719 L 6.728906 13.325781 L 6.708203 13.339844 L 6.687305 13.353906 L 6.666406 13.367773 L 6.624219 13.395117 L 6.60293 13.408789 L 6.560352 13.435742 L 6.517383 13.462305 L 6.452344 13.501563 L 6.430469 13.514453 L 6.386719 13.539844 L 6.364648 13.552539 L 6.320508 13.577539 L 6.298242 13.589844 L 6.253711 13.614063 L 6.23125 13.626172 L 6.208789 13.638086 L 6.186133 13.65 L 6.163672 13.661719 L 6.14082 13.673242 L 6.118164 13.684766 L 6.095313 13.696289 L 6.072461 13.707617 L 6.026758 13.729883 L 6.003711 13.741016 L 5.980664 13.751953 L 5.957422 13.762695 L 5.934375 13.773438 L 5.911133 13.783984 L 5.887695 13.794531 L 5.864453 13.804883 L 5.841016 13.815234 L 5.794141 13.835547 L 5.770703 13.845508 L 5.74707 13.855469 L 5.723438 13.865039 L 5.699805 13.874805 L 5.675977 13.884375 L 5.652344 13.89375 L 5.628516 13.903125 L 5.604688 13.912305 L 5.580859 13.921289 L 5.556836 13.930273 L 5.533008 13.939258 L 5.508984 13.948047 L 5.460938 13.965234 L 5.436719 13.973633 L 5.412695 13.982031 L 5.388477 13.990234 L 5.364258 13.998242 L 5.340234 14.00625 L 5.31582 14.014063 L 5.291602 14.021875 L 5.267383 14.029492 L 5.242969 14.036914 L 5.21875 14.044336 L 5.194336 14.051758 L 5.169922 14.058984 L 5.145508 14.066016 L 5.09668 14.079688 L 5.07207 14.086523 L 5.047656 14.092969 L 5.023047 14.099609 L 4.998633 14.105859 L 4.974023 14.112109 L 4.949609 14.118359 L 4.925 14.124414 L 4.900391 14.130273 L 4.875781 14.135938 L 4.851172 14.141797 L 4.801953 14.152734 L 4.752734 14.163281 L 4.728125 14.168359 L 4.654297 14.183008 L 4.629688 14.1875 L 4.604883 14.191992 L 4.580273 14.196484 L 4.555664 14.200781 L 4.506445 14.208984 L 4.457227 14.216797 L 4.432617 14.220508 L 4.383398 14.227539 L 4.358984 14.230859 L 4.334375 14.23418 L 4.309766 14.237305 L 4.285156 14.240234 L 4.260742 14.243164 L 4.236133 14.245898 L 4.211719 14.248633 L 4.187305 14.251172 L 4.114062 14.258203 L 4.089648 14.260156 L 4.065234 14.262305 L 4.04082 14.264063 L 4.016602 14.26582 L 3.992188 14.267578 L 3.967969 14.269141 L 3.919531 14.271875 L 3.895312 14.273047 L 3.871289 14.274219 L 3.84707 14.275195 L 3.775 14.277539 L 3.750977 14.278125 L 3.726953 14.278516 L 3.703125 14.278906 L 3.655469 14.279297 L 3.631641 14.279297 L 3.607813 14.279102 L 3.58418 14.279102 L 3.513281 14.27793 L 3.489844 14.277148 L 3.466211 14.276563 L 3.442773 14.275781 L 3.419336 14.274805 L 3.396094 14.273828 L 3.349609 14.271484 L 3.303125 14.26875 L 3.280078 14.267383 L 3.257031 14.265625 L 3.23418 14.264063 L 3.211133 14.262109 L 3.188281 14.260352 L 3.16543 14.258398 L 3.120117 14.254102 L 3.074805 14.249414 L 3.052344 14.24707 L 3.029883 14.244531 L 3.007422 14.241797 L 2.962891 14.236328 L 2.940625 14.233398 L 2.918555 14.230273 L 2.896484 14.227344 L 2.874414 14.224023 L 2.852539 14.220898 L 2.830664 14.217578 L 2.808789 14.214063 L 2.76543 14.207031 L 2.743945 14.20332 L 2.722266 14.199609 L 2.700977 14.195703 L 2.679492 14.191797 L 2.658203 14.187891 L 2.637109 14.183789 L 2.61582 14.179688 L 2.594727 14.175391 L 2.55293 14.166797 L 2.532031 14.162305 L 2.511328 14.157813 L 2.469922 14.148438 L 2.449414 14.14375 L 2.429102 14.138867 L 2.408594 14.133984 L 2.388477 14.129102 L 2.368164 14.124023 L 2.348047 14.118945 L 2.328125 14.113867 L 2.308008 14.108594 L 2.288281 14.10332 L 2.268359 14.097852 L 2.248633 14.092578 L 2.229102 14.087109 L 2.20957 14.081445 L 2.190234 14.075977 L 2.170703 14.070312 L 2.151563 14.064648 L 2.113281 14.05293 L 2.075391 14.041211 L 2.056445 14.035156 L 2.037695 14.029102 L 2.000586 14.016992 L 1.982227 14.010742 L 1.963672 14.004492 L 1.945508 13.998242 L 1.927344 13.991797 L 1.90918 13.985547 L 1.873242 13.972656 L 1.855469 13.966016 L 1.837695 13.95957 L 1.802539 13.946289 L 1.785156 13.939648 L 1.767773 13.932813 L 1.750586 13.926172 L 1.716211 13.9125 L 1.699414 13.905664 L 1.682422 13.898633 L 1.665625 13.891797 L 1.649023 13.884766 L 1.632422 13.87793 L 1.61582 13.870898 L 1.599414 13.863867 L 1.583203 13.856641 L 1.566992 13.849609 L 1.550977 13.842383 L 1.534961 13.835352 L 1.518945 13.828125 L 1.503125 13.820898 L 1.45625 13.799219 L 1.44082 13.791992 L 1.425586 13.78457 L 1.410352 13.777344 L 1.395117 13.769922 L 1.380078 13.762695 L 1.350391 13.747852 L 1.335547 13.740625 L 1.320898 13.733203 L 1.306445 13.725781 L 1.291797 13.718359 L 1.249023 13.696094 L 1.234961 13.688672 L 1.193359 13.666406 L 1.179688 13.658789 L 1.166016 13.651367 L 1.152539 13.643945 L 1.112695 13.62168 L 1.086523 13.606836 L 1.060742 13.591992 L 1.035352 13.577148 L 1.022852 13.569922 L 1.010352 13.5625 L 0.998047 13.555078 L 0.985742 13.547852 L 0.973633 13.54043 L 0.961523 13.533203 L 0.949414 13.525781 L 0.9375 13.518555 L 0.902344 13.496875 L 0.89082 13.489648 L 0.879492 13.482422 L 0.867969 13.475391 L 0.856836 13.468164 L 0.845508 13.461133 L 0.83457 13.454102 L 0.823438 13.44707 L 0.8125 13.440039 L 0.791016 13.425977 L 0.780273 13.419141 L 0.769727 13.412109 L 0.75918 13.405273 L 0.738477 13.391602 L 0.72832 13.384961 L 0.718164 13.378125 L 0.708008 13.371484 L 0.688086 13.358203 L 0.67832 13.351562 L 0.668555 13.345117 L 0.658984 13.338477 L 0.649219 13.332031 L 0.639844 13.325586 L 0.630273 13.319336 L 0.621094 13.312891 L 0.611719 13.306641 L 0.593359 13.294141 L 0.566406 13.275977 L 0.548828 13.263867 L 0.523047 13.246289 L 0.497852 13.229297 L 0.489648 13.223633 L 0.473242 13.212695 L 0.465234 13.207227 L 0.449219 13.19668 L 0.433594 13.186133 L 0.425781 13.181055 L 0.410547 13.170898 L 0.395313 13.161133 L 0.387891 13.15625 L 0.380469 13.151563 L 0.366016 13.142188 L 0.344336 13.128711 L 0.330273 13.120117 L 0.323438 13.11582 L 0.316406 13.111719 L 0.30957 13.107617 L 0.302734 13.103711 L 0.296094 13.099805 L 0.289258 13.095898 L 0.282617 13.091992 L 0.275977 13.088281 L 0.269531 13.08457 L 0.262891 13.081055 L 0.25 13.074023 L 0.237109 13.067383 L 0.230859 13.064258 L 0.224414 13.061133 L 0.218164 13.058008 L 0.212109 13.055078 L 0.199609 13.049219 L 0.1875 13.04375 L 0.169336 13.036133 L 0.163477 13.033789 L 0.157422 13.031445 L 0.145703 13.027148 L 0.139844 13.025195 L 0.133984 13.023047 L 0.128125 13.021289 L 0.122266 13.019336 L 0.116602 13.017578 L 0.110742 13.016016 L 0.0994141 13.012891 L 0.0935547 13.011523 L 0.0878906 13.010156 L 0.0708984 13.006641 L 0.0654297 13.005664 L 0.0597656 13.004688 L 0.0484375 13.003125 L 0.0429688 13.002539 L 0.0373047 13.001953 L 0.0318359 13.001367 L 0.0261719 13.000977 L 0.0207031 13.000586 L 0.0150391 13.000391 L 0.00957031 13.000195 L 0.00390625 13 L -0.00722656 13 L -0.0181641 13.000391 L -0.0238281 13.000781 L -0.0292969 13.001172 L -0.0349609 13.001563 L -0.0404297 13.002148 L -0.0460937 13.00293 L -0.0517578 13.003516 L -0.0572266 13.004297 L -0.0742188 13.007227 L -0.0855469 13.00957 L -0.096875 13.012305 L -0.102539 13.013867 L -0.108203 13.015234 L -0.114062 13.016992 L -0.119727 13.018555 L -0.125586 13.020508 L -0.131445 13.022266 L -0.143164 13.026172 L -0.154883 13.030469 L -0.160742 13.032813 L -0.172852 13.0375 L -0.178711 13.040039 L -0.184766 13.042578 L -0.19082 13.045313 L -0.19707 13.048047 L -0.203125 13.050781 L -0.215625 13.056641 L -0.234375 13.066016 L -0.24082 13.069336 L -0.24707 13.072656 L -0.253516 13.075977 L -0.260156 13.079492 L -0.266602 13.083008 L -0.273242 13.086719 L -0.279687 13.09043 L -0.286328 13.094141 L -0.293164 13.098047 L -0.299805 13.101953 L -0.306641 13.105859 L -0.320312 13.114063 L -0.327344 13.118359 L -0.334375 13.122461 L -0.341406 13.126953 L -0.348437 13.13125 L -0.362891 13.140234 L -0.377344 13.149609 L -0.392187 13.158984 L -0.399609 13.163867 L -0.407227 13.16875 L -0.430078 13.183984 L -0.437891 13.189063 L -0.445898 13.194336 L -0.453711 13.199609 L -0.461719 13.204883 L -0.477734 13.21582 L -0.485937 13.221289 L -0.494141 13.226953 L -0.502539 13.232422 L -0.510937 13.238086 L -0.519336 13.243945 L -0.52793 13.249609 L -0.545117 13.261328 L -0.553906 13.267383 L -0.562695 13.273242 L -0.571484 13.279297 L -0.580469 13.285352 L -0.589453 13.291602 L -0.598633 13.297656 L -0.616992 13.310156 L -0.626367 13.316602 L -0.635742 13.322852 L -0.645117 13.329297 L -0.654687 13.335742 L -0.664453 13.342188 L -0.674023 13.348828 L -0.683789 13.355273 L -0.713672 13.375195 L -0.723828 13.382031 L -0.733984 13.388672 L -0.754687 13.402344 L -0.775781 13.416016 L -0.786328 13.423047 L -0.79707 13.429883 L -0.807812 13.436914 L -0.829687 13.450977 L -0.84082 13.458008 L -0.851953 13.465234 L -0.863086 13.472266 L -0.874414 13.479492 L -0.885937 13.486523 L -0.908984 13.500977 L -0.932422 13.51543 L -0.944336 13.522656 L -0.95625 13.530078 L -0.980469 13.544531 L -1.005078 13.559375 L -1.017383 13.566602 L -1.029883 13.574023 L -1.067969 13.596289 L -1.080859 13.603711 L -1.120117 13.625977 L -1.14668 13.64082 L -1.160156 13.648242 L -1.201172 13.670508 L -1.228906 13.685352 L -1.242969 13.692773 L -1.257031 13.700391 L -1.271289 13.707813 L -1.285742 13.715234 L -1.3 13.722656 L -1.314648 13.729883 L -1.343945 13.744727 L -1.373633 13.75957 L -1.388672 13.766797 L -1.403711 13.774219 L -1.418945 13.781445 L -1.43418 13.788867 L -1.465039 13.80332 L -1.496289 13.817773 L -1.52793 13.832227 L -1.543945 13.839453 L -1.559961 13.846484 L -1.576172 13.853711 L -1.592383 13.860742 L -1.625195 13.874805 L -1.658398 13.888867 L -1.691992 13.902539 L -1.708984 13.90957 L -1.725977 13.916406 L -1.743164 13.923242 L -1.760352 13.929883 L -1.777539 13.936719 L -1.794922 13.943359 L -1.830078 13.956641 L -1.847852 13.963281 L -1.883398 13.976172 L -1.901367 13.982617 L -1.919531 13.989063 L -1.9375 13.995508 L -1.992578 14.014258 L -2.011133 14.020313 L -2.029687 14.026563 L -2.067187 14.038672 L -2.124023 14.05625 L -2.143164 14.062109 L -2.201172 14.079102 L -2.220703 14.08457 L -2.240234 14.090234 L -2.259961 14.095508 L -2.279687 14.100977 L -2.299414 14.10625 L -2.319336 14.111523 L -2.339453 14.116797 L -2.359375 14.121875 L -2.379687 14.126953 L -2.399805 14.131836 L -2.420117 14.136719 L -2.461133 14.146484 L -2.481641 14.151172 L -2.502344 14.155664 L -2.523047 14.160352 L -2.54375 14.164844 L -2.564648 14.169141 L -2.585742 14.173438 L -2.606641 14.177734 L -2.62793 14.182031 L -2.649023 14.186133 L -2.670312 14.190039 L -2.691602 14.194141 L -2.713086 14.197852 L -2.73457 14.201758 L -2.756055 14.205469 L -2.821094 14.216016 L -2.864844 14.222656 L -2.886914 14.225977 L -2.908984 14.229102 L -2.953125 14.234961 L -2.975391 14.237891 L -2.997852 14.240625 L -3.020117 14.243359 L -3.065039 14.248438 L -3.0875 14.250781 L -3.110156 14.253125 L -3.132812 14.255273 L -3.155664 14.257422 L -3.17832 14.259375 L -3.201172 14.261328 L -3.224219 14.263281 L -3.24707 14.265039 L -3.293164 14.268164 L -3.316406 14.269531 L -3.339453 14.270898 L -3.362695 14.272266 L -3.385937 14.273438 L -3.409375 14.274414 L -3.432617 14.275391 L -3.479492 14.276953 L -3.503125 14.277539 L -3.526562 14.278125 L -3.573828 14.278906 L -3.597656 14.279102 L -3.621289 14.279297 L -3.645117 14.279297 L -3.716602 14.278711 L -3.740625 14.27832 L -3.788672 14.277148 L -3.836719 14.275586 L -3.860742 14.274609 L -3.884961 14.273633 L -3.90918 14.272461 L -3.933203 14.271094 L -3.957422 14.269727 L -3.981836 14.268164 L -4.006055 14.266602 L -4.030273 14.264844 L -4.054688 14.263086 L -4.079102 14.261133 L -4.10332 14.258984 L -4.152148 14.254688 L -4.176758 14.252148 L -4.201172 14.249805 L -4.225586 14.24707 L -4.250195 14.244336 L -4.274609 14.241406 L -4.299219 14.238477 L -4.323633 14.235547 L -4.397461 14.225586 L -4.42207 14.22207 L -4.446484 14.218359 L -4.471094 14.214648 L -4.495703 14.210742 L -4.520508 14.206641 L -4.569727 14.198438 L -4.643555 14.184961 L -4.668164 14.180273 L -4.717383 14.170508 L -4.742188 14.16543 L -4.766797 14.160352 L -4.791406 14.155078 L -4.840625 14.144141 L -4.865234 14.138477 L -4.889648 14.132812 L -4.914258 14.126953 L -4.963477 14.114844 L -4.988086 14.108594 L -5.0125 14.102344 L -5.037109 14.095898 L -5.085938 14.082617 L -5.110547 14.075781 L -5.134961 14.068945 L -5.183789 14.054883 L -5.208203 14.047656 L -5.232422 14.040234 L -5.256836 14.032813 L -5.281055 14.025195 L -5.305469 14.017383 L -5.353906 14.001758 L -5.378125 13.99375 L -5.402148 13.985547 L -5.426367 13.977344 L -5.450391 13.968945 L -5.474609 13.960352 L -5.498633 13.951758 L -5.522656 13.942969 L -5.546484 13.93418 L -5.570508 13.925195 L -5.594336 13.916211 L -5.641992 13.897852 L -5.66582 13.888477 L -5.713086 13.869336 L -5.760352 13.849805 L -5.783984 13.839844 L -5.807422 13.829883 L -5.830859 13.819727 L -5.877734 13.799023 L -5.900977 13.788672 L -5.924219 13.778125 L -5.947461 13.767383 L -5.970508 13.756641 L -5.99375 13.745703 L -6.016797 13.734766 L -6.039648 13.723633 L -6.062695 13.7125 L -6.108398 13.689844 L -6.153711 13.666797 L -6.176367 13.655078 L -6.199023 13.643164 L -6.243945 13.619336 L -6.266211 13.607227 L -6.288672 13.595117 L -6.310937 13.582813 L -6.333008 13.570508 L -6.355078 13.558008 L -6.377148 13.545313 L -6.399219 13.532813 L -6.442969 13.507031 L -6.464648 13.494141 L -6.508008 13.467969 L -6.529492 13.454883 L -6.550977 13.441602 L -6.572461 13.428125 L -6.615039 13.401172 L -6.636133 13.3875 L -6.657227 13.373633 L -6.678125 13.359961 L -6.699219 13.345898 L -6.719922 13.332031 L -6.74082 13.317969 L -6.761328 13.303711 L -6.782031 13.289453 L -6.802539 13.275195 L -6.823047 13.260742 L -6.843359 13.246289 L -6.863477 13.231836 L -6.883789 13.217188 L -6.903906 13.202344 L -6.923828 13.187695 L -6.94375 13.172656 L -6.963672 13.157813 L -6.983398 13.142773 L -7.00293 13.127734 L -7.041992 13.097266 L -7.061328 13.082031 L -7.080664 13.066602 L -7.118945 13.035742 L -7.156836 13.004492 L -7.175586 12.988867 L -7.213086 12.957227 L -7.231445 12.941406 L -7.25 12.925391 L -7.268359 12.909375 L -7.286523 12.893359 L -7.304688 12.877148 L -7.358594 12.828516 L -7.376172 12.812109 L -7.393945 12.795703 L -7.411523 12.779297 L -7.446289 12.746094 L -7.480664 12.712891 L -7.514648 12.679297 L -7.531445 12.6625 L -7.548047 12.645703 L -7.564648 12.628711 L -7.58125 12.611914 L -7.597656 12.594922 L -7.614062 12.577734 L -7.630273 12.560742 L -7.646289 12.543555 L -7.662305 12.526563 L -7.678125 12.509375 L -7.693945 12.491992 L -7.70957 12.474805 L -7.725195 12.457422 L -7.740625 12.440234 L -7.756055 12.422852 L -7.771289 12.405469 L -7.786328 12.388086 L -7.801367 12.370508 L -7.816406 12.353125 L -7.83125 12.335547 L -7.860547 12.300391 L -7.889453 12.265234 L -7.903711 12.247656 L -7.917773 12.229883 L -7.931836 12.212305 L -7.945898 12.194531 L -7.959766 12.176758 L -7.973437 12.15918 L -7.987109 12.141406 L -8.014062 12.105859 L -8.027344 12.087891 L -8.066602 12.03457 L -8.079492 12.016602 L -8.092187 11.998828 L -8.104883 11.980859 L -8.117383 11.963086 L -8.129883 11.945117 L -8.142187 11.927344 L -8.154297 11.909375 L -8.166406 11.891602 L -8.178516 11.873633 L -8.19043 11.855859 L -8.213867 11.819922 L -8.225391 11.802148 L -8.236914 11.78418 L -8.248242 11.766406 L -8.25957 11.748438 L -8.270703 11.730664 L -8.281641 11.712695 L -8.303516 11.677148 L -8.314062 11.65918 L -8.324805 11.641406 L -8.335352 11.623633 L -8.356055 11.588086 L -8.366211 11.570312 L -8.376172 11.552539 L -8.386328 11.534766 L -8.396094 11.516992 L -8.405859 11.499414 L -8.415625 11.481641 L -8.425195 11.464063 L -8.43457 11.446289 L -8.45332 11.411133 L -8.4625 11.393555 L -8.471484 11.375977 L -8.480469 11.358594 L -8.489258 11.341016 L -8.498047 11.323633 L -8.523828 11.271484 L -8.532031 11.254102 L -8.54043 11.236719 L -8.548633 11.219531 L -8.556641 11.202344 L -8.564648 11.184961 L -8.572461 11.167969 L -8.580273 11.150781 L -8.587891 11.133594 L -8.603125 11.099609 L -8.610547 11.082617 L -8.617773 11.065625 L -8.632227 11.032031 L -8.639258 11.015234 L -8.65293 10.981641 L -8.659766 10.965039 L -8.679688 10.915234 L -8.685937 10.898828 L -8.692383 10.882422 L -8.698633 10.866016 L -8.704687 10.849805 L -8.710938 10.833398 L -8.716797 10.817188 L -8.722852 10.801172 L -8.728516 10.784961 L -8.734375 10.768945 L -8.740039 10.75293 L -8.745703 10.737109 L -8.751172 10.721094 L -8.756641 10.705273 L -8.761914 10.689648 L -8.767187 10.673828 L -8.772461 10.658203 L -8.777539 10.642578 L -8.782617 10.627148 L -8.797266 10.580859 L -8.806641 10.550391 L -8.811328 10.535352 L -8.820312 10.505273 L -8.824805 10.49043 L -8.829102 10.475391 L -8.833398 10.460742 L -8.8375 10.445898 L -8.841797 10.43125 L -8.845703 10.416797 L -8.849805 10.402148 L -8.853711 10.387695 L -8.857617 10.373438 L -8.861523 10.358984 L -8.865234 10.344922 L -8.868945 10.330664 L -8.872656 10.316602 L -8.876172 10.302539 L -8.883203 10.274805 L -8.886523 10.260938 L -8.890039 10.247266 L -8.893359 10.233594 L -8.896484 10.220117 L -8.899805 10.206641 L -8.90293 10.193359 L -8.906055 10.179883 L -8.90918 10.166797 L -8.912109 10.153516 L -8.915039 10.14043 L -8.923828 10.101758 L -8.926562 10.088867 L -8.929297 10.076367 L -8.932031 10.063672 L -8.934766 10.051172 L -8.937305 10.038672 L -8.939844 10.026367 L -8.942578 10.014063 L -8.944922 10.001953 L -8.95 9.977734 L -8.952344 9.96582 L -8.954687 9.954102 L -8.957031 9.942188 L -8.959375 9.930664 L -8.961719 9.918945 L -8.963867 9.907422 L -8.966211 9.896094 L -8.970508 9.873438 L -8.974805 9.851172 L -8.979102 9.829297 L -8.981055 9.818555 L -8.983203 9.807813 L -8.985156 9.79707 L -8.987305 9.786523 L -8.989258 9.775977 L -8.993164 9.755273 L -8.99707 9.734961 L -8.999023 9.725 L -9.000781 9.715039 L -9.002734 9.705078 L -9.004687 9.695312 L -9.006641 9.685742 L -9.008398 9.675977 L -9.010352 9.666602 L -9.012109 9.657031 L -9.014062 9.647656 L -9.01582 9.638477 L -9.017773 9.629297 L -9.019531 9.620117 L -9.021484 9.611133 L -9.023242 9.602344 L -9.025195 9.593359 L -9.026953 9.584766 L -9.028906 9.575977 L -9.030664 9.567383 L -9.03457 9.550586 L -9.036328 9.542188 L -9.040234 9.525781 L -9.041992 9.517773 L -9.043945 9.509766 L -9.049805 9.486328 L -9.051758 9.478711 L -9.053906 9.471094 L -9.057813 9.45625 L -9.059961 9.449023 L -9.061914 9.441797 L -9.064062 9.43457 L -9.068359 9.420508 L -9.074805 9.4 L -9.079492 9.386719 L -9.081641 9.380273 L -9.083984 9.373828 L -9.086328 9.367578 L -9.088672 9.361133 L -9.091211 9.355078 L -9.093555 9.348828 L -9.096094 9.342773 L -9.103711 9.325195 L -9.10625 9.319531 L -9.111719 9.308203 L -9.117188 9.297266 L -9.120117 9.291797 L -9.122852 9.286523 L -9.125781 9.28125 L -9.131641 9.271094 L -9.134766 9.266016 L -9.144141 9.251367 L -9.147461 9.24668 L -9.150586 9.241992 L -9.153906 9.237305 L -9.157422 9.232813 L -9.160742 9.22832 L -9.164258 9.223828 L -9.171289 9.215234 L -9.175 9.210938 L -9.182422 9.202734 L -9.186328 9.198633 L -9.198047 9.186914 L -9.202148 9.183008 L -9.210352 9.175586 L -9.214648 9.171875 L -9.227539 9.161328 L -9.232031 9.157813 L -9.236719 9.154492 L -9.241211 9.151172 L -9.245898 9.147852 L -9.250586 9.144727 L -9.255469 9.141406 L -9.265234 9.135156 L -9.270312 9.132227 L -9.275391 9.129102 L -9.280469 9.126172 L -9.285742 9.123242 L -9.291016 9.120508 L -9.296484 9.117578 L -9.301758 9.114844 L -9.307422 9.112109 L -9.312891 9.109375 L -9.318555 9.106641 L -9.324414 9.104102 L -9.330078 9.101562 L -9.335938 9.099023 L -9.348047 9.093945 L -9.354102 9.091602 L -9.360352 9.089063 L -9.372852 9.084375 L -9.385742 9.079688 L -9.392383 9.077539 L -9.399023 9.075195 L -9.405859 9.073047 L -9.4125 9.070898 L -9.419531 9.06875 L -9.426367 9.066602 L -9.433594 9.064453 L -9.440625 9.062305 L -9.447852 9.060156 L -9.455273 9.058203 L -9.4625 9.05625 L -9.470117 9.054102 L -9.477539 9.052148 L -9.485156 9.050195 L -9.508594 9.044336 L -9.524609 9.04043 L -9.532812 9.038477 L -9.541016 9.036719 L -9.549219 9.034766 L -9.557617 9.032813 L -9.566211 9.031055 L -9.574805 9.029102 L -9.583398 9.027344 L -9.592187 9.025391 L -9.600977 9.023633 L -9.609766 9.02168 L -9.61875 9.019922 L -9.62793 9.017969 L -9.637109 9.016211 L -9.646289 9.014258 L -9.655664 9.0125 L -9.665039 9.010547 L -9.674609 9.008789 L -9.68418 9.006836 L -9.693945 9.004883 L -9.703711 9.003125 L -9.713477 9.001172 L -9.723437 8.999219 L -9.733594 8.997266 L -9.743555 8.995313 L -9.753906 8.993359 L -9.764062 8.991406 L -9.774414 8.989453 L -9.795508 8.985547 L -9.80625 8.983398 L -9.816797 8.981445 L -9.827734 8.979297 L -9.838672 8.977344 L -9.849609 8.975195 L -9.883008 8.96875 L -9.894336 8.966602 L -9.905859 8.964258 L -9.917188 8.962109 L -9.928906 8.959766 L -9.94043 8.957422 L -9.952344 8.955078 L -9.964063 8.952734 L -9.975977 8.950391 L -10.012305 8.942773 L -10.049219 8.935156 L -10.061719 8.932422 L -10.099805 8.924219 L -10.112695 8.921289 L -10.125586 8.918555 L -10.138477 8.915625 L -10.151563 8.912695 L -10.164648 8.90957 L -10.17793 8.906445 L -10.191211 8.903516 L -10.204687 8.900195 L -10.218164 8.89707 L -10.231641 8.89375 L -10.272656 8.883789 L -10.286523 8.880273 L -10.300586 8.876758 L -10.314453 8.873047 L -10.328516 8.869531 L -10.342773 8.86582 L -10.356836 8.862109 L -10.371289 8.858203 L -10.385547 8.854297 L -10.4 8.850391 L -10.414453 8.846289 L -10.429102 8.842383 L -10.44375 8.838281 L -10.458398 8.833984 L -10.488086 8.825391 L -10.503125 8.821094 L -10.517969 8.816602 L -10.533008 8.811914 L -10.548242 8.807422 L -10.578711 8.798047 L -10.593945 8.793164 L -10.624805 8.783398 L -10.640234 8.77832 L -10.655859 8.773242 L -10.687109 8.762695 L -10.70293 8.757422 L -10.73457 8.746484 L -10.782617 8.729492 L -10.798633 8.723633 L -10.814844 8.717773 L -10.847266 8.705664 L -10.863672 8.699609 L -10.879883 8.693359 L -10.896484 8.686914 L -10.929297 8.674023 L -10.945898 8.667578 L -10.9625 8.660742 L -10.979297 8.654102 L -10.995898 8.647266 L -11.046289 8.626172 L -11.063086 8.618945 L -11.114062 8.59668 L -11.131055 8.589063 L -11.148242 8.581445 L -11.165234 8.573633 L -11.182422 8.56582 L -11.199609 8.557813 L -11.216992 8.549805 L -11.23418 8.541602 L -11.251563 8.533398 L -11.26875 8.525 L -11.286133 8.516602 L -11.320898 8.499414 L -11.338477 8.490625 L -11.355859 8.481836 L -11.391016 8.463867 L -11.408594 8.454688 L -11.461328 8.426563 L -11.479102 8.416992 L -11.49668 8.407422 L -11.514453 8.397656 L -11.532031 8.387695 L -11.567578 8.367773 L -11.585352 8.357422 L -11.603125 8.347266 L -11.620898 8.336914 L -11.638672 8.326367 L -11.656641 8.31582 L -11.692187 8.294336 L -11.710156 8.283398 L -11.72793 8.272266 L -11.745898 8.261133 L -11.763672 8.25 L -11.781641 8.238672 L -11.799414 8.227148 L -11.817383 8.215625 L -11.835156 8.203906 L -11.853125 8.192188 L -11.870898 8.180273 L -11.888867 8.168359 L -11.906836 8.15625 L -11.924609 8.143945 L -11.942578 8.131641 L -11.960352 8.119336 L -11.97832 8.106836 L -11.996094 8.094141 L -12.014062 8.081445 L -12.031836 8.068555 L -12.049609 8.055469 L -12.067578 8.042383 L -12.085352 8.029297 L -12.103125 8.016016 L -12.156445 7.975586 L -12.174219 7.961719 L -12.191797 7.947852 L -12.20957 7.933984 L -12.227344 7.919922 L -12.244922 7.905859 L -12.2625 7.891602 L -12.280273 7.877148 L -12.297852 7.862695 L -12.333008 7.833398 L -12.350391 7.818555 L -12.367969 7.803711 L -12.402734 7.773633 L -12.420117 7.758398 L -12.454883 7.727539 L -12.472266 7.711914 L -12.489453 7.696289 L -12.523828 7.664648 L -12.558203 7.632617 L -12.575195 7.616406 L -12.592383 7.600195 L -12.609375 7.583789 L -12.626172 7.567188 L -12.643164 7.550586 L -12.659961 7.533984 L -12.676758 7.517188 L -12.710352 7.483203 L -12.743555 7.448828 L -12.776758 7.414062 L -12.80957 7.378906 L -12.842383 7.343359 L -12.874805 7.307422 L -12.89082 7.289258 L -12.907031 7.271094 L -12.923047 7.252734 L -12.938867 7.234375 L -12.954883 7.21582 L -12.970703 7.197266 L -12.986523 7.178516 L -13.002148 7.159766 L -13.033398 7.121875 L -13.048828 7.102734 L -13.064453 7.083594 L -13.079688 7.064258 L -13.095117 7.044922 L -13.110352 7.025391 L -13.125391 7.005859 L -13.140625 6.986328 L -13.155469 6.966602 L -13.170508 6.94668 L -13.200195 6.906836 L -13.229492 6.866602 L -13.244141 6.846289 L -13.273047 6.805664 L -13.287305 6.785156 L -13.301562 6.764453 L -13.31582 6.743945 L -13.329883 6.723047 L -13.343945 6.702344 L -13.357812 6.681445 L -13.37168 6.660352 L -13.399023 6.618164 L -13.412695 6.596875 L -13.426172 6.575586 L -13.439453 6.554297 L -13.452734 6.532813 L -13.466016 6.511133 L -13.479102 6.489648 L -13.492188 6.467969 L -13.505273 6.446094 L -13.517969 6.424414 L -13.530859 6.402539 L -13.543555 6.380469 L -13.568555 6.336328 L -13.580859 6.314258 L -13.605469 6.269727 L -13.617578 6.247266 L -13.65332 6.179883 L -13.665039 6.157227 L -13.676562 6.13457 L -13.688086 6.111719 L -13.72207 6.043164 L -13.733203 6.020117 L -13.755078 5.974023 L -13.76582 5.950977 L -13.776563 5.927734 L -13.787109 5.904492 L -13.797461 5.88125 L -13.818164 5.834375 L -13.82832 5.810938 L -13.838281 5.7875 L -13.848242 5.763867 L -13.858203 5.74043 L -13.867969 5.716797 L -13.877539 5.692969 L -13.886914 5.669336 L -13.896484 5.645508 L -13.924023 5.574023 L -13.932813 5.550195 L -13.941797 5.526172 L -13.950391 5.502148 L -13.95918 5.478125 L -13.967578 5.454102 L -13.975977 5.429883 L -13.984375 5.405859 L -13.992383 5.381641 L -14.000586 5.357422 L -14.024023 5.284766 L -14.031641 5.260547 L -14.046484 5.211719 L -14.053711 5.187305 L -14.060937 5.163086 L -14.067969 5.138672 L -14.074805 5.114063 L -14.081641 5.089648 L -14.088281 5.065234 L -14.094922 5.040625 L -14.101367 5.016211 L -14.107617 4.991602 L -14.113867 4.967188 L -14.120117 4.942578 L -14.137695 4.86875 L -14.143359 4.844336 L -14.154297 4.795117 L -14.15957 4.770508 L -14.164648 4.745703 L -14.174805 4.696484 L -14.188867 4.622656 L -14.193359 4.598047 L -14.201953 4.548828 L -14.206055 4.524023 L -14.210156 4.499414 L -14.214063 4.474805 L -14.221484 4.425586 L -14.225 4.401172 L -14.228516 4.376563 L -14.231836 4.351953 L -14.238086 4.302734 L -14.241016 4.27832 L -14.243945 4.253711 L -14.249414 4.204883 L -14.251758 4.180273 L -14.254297 4.155859 L -14.256641 4.131445 L -14.258789 4.107031 L -14.260742 4.082617 L -14.262695 4.058398 L -14.264648 4.033984 L -14.266406 4.009766 L -14.267969 3.985352 L -14.269531 3.961133 L -14.272266 3.912695 L -14.273438 3.888477 L -14.274414 3.864453 L -14.275391 3.840234 L -14.276367 3.816211 L -14.276953 3.792188 L -14.277734 3.768164 L -14.278125 3.744141 L -14.278711 3.720313 L -14.278906 3.696289 L -14.279297 3.648633 L -14.279297 3.624805 L -14.278906 3.577539 L -14.278711 3.553711 L -14.278125 3.530273 L -14.277734 3.506641 L -14.276953 3.483008 L -14.276367 3.45957 L -14.275391 3.436133 L -14.274609 3.412891 L -14.273438 3.389453 L -14.272461 3.366211 L -14.269727 3.319727 L -14.268359 3.29668 L -14.265234 3.250586 L -14.263477 3.227539 L -14.261719 3.204688 L -14.257812 3.158984 L -14.253516 3.113672 L -14.248828 3.068359 L -14.24375 3.023438 L -14.241016 3.001172 L -14.238281 2.978711 L -14.235352 2.956641 L -14.232422 2.934375 L -14.229492 2.912305 L -14.223242 2.868164 L -14.216602 2.824414 L -14.206055 2.759375 L -14.202344 2.737695 L -14.198438 2.716211 L -14.194727 2.694922 L -14.190625 2.673438 L -14.186719 2.652148 L -14.178516 2.609961 L -14.174219 2.588867 L -14.169922 2.567969 L -14.160937 2.526172 L -14.156445 2.505469 L -14.151758 2.484766 L -14.142383 2.44375 L -14.1375 2.423242 L -14.127734 2.382617 L -14.117578 2.342383 L -14.112305 2.322461 L -14.107031 2.302344 L -14.096484 2.262891 L -14.091016 2.243164 L -14.085547 2.223633 L -14.079883 2.204102 L -14.074414 2.18457 L -14.06875 2.165234 L -14.062891 2.146094 L -14.057227 2.126953 L -14.051367 2.107813 L -14.045508 2.088867 L -14.039453 2.069922 L -14.027344 2.032422 L -14.015234 1.995313 L -13.996484 1.940234 L -13.990039 1.92207 L -13.970703 1.868164 L -13.964258 1.850391 L -13.957617 1.832812 L -13.950977 1.815039 L -13.937695 1.780273 L -13.930859 1.762891 L -13.924219 1.745703 L -13.917383 1.728516 L -13.903711 1.694531 L -13.89668 1.677734 L -13.889844 1.660937 L -13.875781 1.627734 L -13.854688 1.578516 L -13.847656 1.5625 L -13.84043 1.546289 L -13.833203 1.530273 L -13.826172 1.514453 L -13.818945 1.498633 L -13.804492 1.467383 L -13.797266 1.451953 L -13.789844 1.436523 L -13.782617 1.421289 L -13.775195 1.406055 L -13.767969 1.39082 L -13.760547 1.375781 L -13.75332 1.360938 L -13.745898 1.346094 L -13.723633 1.302148 L -13.716211 1.287891 L -13.708789 1.273438 L -13.701367 1.25918 L -13.686523 1.231055 L -13.664258 1.189453 L -13.656836 1.175781 L -13.649414 1.162305 L -13.641797 1.148828 L -13.634375 1.135352 L -13.626953 1.12207 L -13.604688 1.082812 L -13.597266 1.069922 L -13.582422 1.044531 L -13.575195 1.031836 L -13.560352 1.006836 L -13.553125 0.994531 L -13.545703 0.982227 L -13.538477 0.970117 L -13.531055 0.958008 L -13.516602 0.93418 L -13.50918 0.922461 L -13.501953 0.910742 L -13.494922 0.899219 L -13.480469 0.876172 L -13.473242 0.864844 L -13.466211 0.853516 L -13.45918 0.842383 L -13.451953 0.831445 L -13.444922 0.820312 L -13.438086 0.80957 L -13.431055 0.798633 L -13.424023 0.787891 L -13.417188 0.777344 L -13.410156 0.766797 L -13.40332 0.75625 L -13.396484 0.745898 L -13.389844 0.735547 L -13.383008 0.725391 L -13.376367 0.715234 L -13.369531 0.705273 L -13.35625 0.685352 L -13.349805 0.675586 L -13.343164 0.66582 L -13.323828 0.637109 L -13.317578 0.627734 L -13.311133 0.618359 L -13.292383 0.59082 L -13.274219 0.563867 L -13.268164 0.555078 L -13.262305 0.546484 L -13.256445 0.537695 L -13.250586 0.529102 L -13.244727 0.520703 L -13.239062 0.512109 L -13.233398 0.503711 L -13.22207 0.487305 L -13.211133 0.470898 L -13.205664 0.462891 L -13.200391 0.454883 L -13.195117 0.44707 L -13.189844 0.439063 L -13.184766 0.43125 L -13.169531 0.408398 L -13.164648 0.400781 L -13.154883 0.385938 L -13.145508 0.371094 L -13.141016 0.363867 L -13.136328 0.356641 L -13.132031 0.349609 L -13.127539 0.342383 L -13.118945 0.32832 L -13.114648 0.321484 L -13.110547 0.314453 L -13.106445 0.307617 L -13.102539 0.300977 L -13.098633 0.294141 L -13.094727 0.2875 L -13.083594 0.267578 L -13.080078 0.261133 L -13.076562 0.254492 L -13.073047 0.248047 L -13.069727 0.241797 L -13.066602 0.235352 L -13.063281 0.229102 L -13.060156 0.222656 L -13.057227 0.216406 L -13.054102 0.210352 L -13.051367 0.204102 L -13.048438 0.197852 L -13.042969 0.185742 L -13.037891 0.173633 L -13.035547 0.167578 L -13.030859 0.155859 L -13.028711 0.149805 L -13.026563 0.143945 L -13.022656 0.132227 L -13.020703 0.126563 L -13.017188 0.114844 L -13.014062 0.103516 L -13.0125 0.0976562 L -13.009766 0.0863281 L -13.007422 0.075 L -13.005469 0.0636719 L -13.004492 0.0582031 L -13.00293 0.046875 L -13.002344 0.0414063 L -13.001758 0.0357422 L -13.001172 0.0302734 L -13.000781 0.0246094 L -13.000391 0.0191406 L -13.000195 0.0134766 L -13 0.00800781 L -13 -0.003125 L -13.000195 -0.00878906 L -13.000195 -0.0142578 L -13.000586 -0.0197266 L -13.000781 -0.0253906 L -13.001367 -0.0308594 L -13.001758 -0.0365234 L -13.002344 -0.0421875 L -13.003125 -0.0476562 L -13.003711 -0.0533203 L -13.004687 -0.0589844 L -13.005469 -0.0644531 L -13.006445 -0.0701172 L -13.009961 -0.0871094 L -13.012695 -0.0984375 L -13.014258 -0.104102 L -13.01582 -0.109961 L -13.017383 -0.115625 L -13.019141 -0.121484 L -13.020898 -0.127148 L -13.024805 -0.138867 L -13.026953 -0.144727 L -13.028906 -0.150586 L -13.03125 -0.156641 L -13.033398 -0.1625 L -13.035742 -0.168555 L -13.038281 -0.174414 L -13.043359 -0.186523 L -13.046094 -0.192578 L -13.048828 -0.198828 L -13.051562 -0.204883 L -13.054492 -0.211133 L -13.057617 -0.217383 L -13.060547 -0.223633 L -13.063672 -0.229883 L -13.066992 -0.236133 L -13.076953 -0.255469 L -13.080469 -0.261914 L -13.08418 -0.268359 L -13.087695 -0.275 L -13.091406 -0.281641 L -13.095313 -0.288281 L -13.099219 -0.295117 L -13.103125 -0.301758 L -13.107031 -0.308594 L -13.115234 -0.322266 L -13.128125 -0.343359 L -13.132617 -0.350391 L -13.146094 -0.37207 L -13.150781 -0.379492 L -13.155664 -0.386914 L -13.160352 -0.394336 L -13.165234 -0.401758 L -13.170312 -0.409375 L -13.175195 -0.416992 L -13.180273 -0.424609 L -13.185352 -0.432422 L -13.195898 -0.448047 L -13.201172 -0.456055 L -13.206445 -0.463867 L -13.211914 -0.47207 L -13.217383 -0.480078 L -13.222852 -0.488281 L -13.228516 -0.49668 L -13.23418 -0.504883 L -13.245508 -0.52168 L -13.257227 -0.538867 L -13.263086 -0.547656 L -13.268945 -0.55625 L -13.275 -0.565039 L -13.287109 -0.583008 L -13.293359 -0.591992 L -13.299414 -0.601172 L -13.305664 -0.610352 L -13.312109 -0.619531 L -13.318359 -0.628906 L -13.324805 -0.638281 L -13.331055 -0.647852 L -13.3375 -0.657422 L -13.344141 -0.667187 L -13.350586 -0.676758 L -13.357227 -0.686719 L -13.363867 -0.696484 L -13.370508 -0.706445 L -13.377148 -0.716602 L -13.383984 -0.726758 L -13.390625 -0.736914 L -13.404297 -0.757617 L -13.417969 -0.778711 L -13.432031 -0.800195 L -13.438867 -0.810937 L -13.45293 -0.832812 L -13.460156 -0.843945 L -13.467187 -0.855078 L -13.474219 -0.866406 L -13.488672 -0.889062 L -13.495703 -0.900586 L -13.510156 -0.924023 L -13.517578 -0.935742 L -13.524805 -0.947656 L -13.532031 -0.959766 L -13.539453 -0.97168 L -13.54668 -0.983984 L -13.554102 -0.996094 L -13.561328 -1.008594 L -13.56875 -1.020898 L -13.576172 -1.033594 L -13.583594 -1.046094 L -13.59082 -1.058789 L -13.605664 -1.08457 L -13.62793 -1.123828 L -13.635352 -1.137109 L -13.642969 -1.150586 L -13.650391 -1.164062 L -13.672656 -1.205078 L -13.680078 -1.218945 L -13.702344 -1.261133 L -13.717187 -1.289648 L -13.724609 -1.304102 L -13.746875 -1.348047 L -13.754297 -1.362891 L -13.761523 -1.37793 L -13.768945 -1.392969 L -13.776172 -1.408008 L -13.783594 -1.423242 L -13.79082 -1.438477 L -13.798047 -1.453906 L -13.805469 -1.469531 L -13.819922 -1.500781 L -13.827148 -1.516602 L -13.83418 -1.532422 L -13.841406 -1.548437 L -13.848633 -1.564648 L -13.862695 -1.59707 L -13.876758 -1.629883 L -13.89082 -1.663086 L -13.897656 -1.679883 L -13.904492 -1.696875 L -13.911523 -1.713672 L -13.918359 -1.730859 L -13.925 -1.747852 L -13.931836 -1.765234 L -13.938477 -1.782422 L -13.945312 -1.8 L -13.951953 -1.817383 L -13.958594 -1.835156 L -13.965039 -1.852734 L -13.97168 -1.870508 L -13.98457 -1.906445 L -13.99082 -1.924609 L -13.997266 -1.942773 L -14.003516 -1.960938 L -14.009766 -1.979297 L -14.016016 -1.997852 L -14.02207 -2.016406 L -14.02832 -2.034961 L -14.03418 -2.053711 L -14.040234 -2.072461 L -14.046289 -2.091406 L -14.052148 -2.110352 L -14.058008 -2.129492 L -14.063672 -2.148633 L -14.080664 -2.206641 L -14.086328 -2.226172 L -14.091797 -2.245703 L -14.09707 -2.26543 L -14.102539 -2.285156 L -14.113086 -2.325 L -14.12832 -2.385352 L -14.138086 -2.425977 L -14.142969 -2.446484 L -14.152344 -2.4875 L -14.157031 -2.508203 L -14.161523 -2.528906 L -14.170508 -2.570703 L -14.174805 -2.591602 L -14.178906 -2.612695 L -14.183203 -2.633789 L -14.187305 -2.655078 L -14.195117 -2.697656 L -14.199023 -2.719141 L -14.206445 -2.762109 L -14.210156 -2.783789 L -14.213672 -2.805664 L -14.216992 -2.827344 L -14.223633 -2.871094 L -14.233008 -2.937305 L -14.235742 -2.95957 L -14.238672 -2.981836 L -14.241406 -3.004102 L -14.244141 -3.026562 L -14.24668 -3.048828 L -14.249023 -3.071484 L -14.251367 -3.093945 L -14.253711 -3.116602 L -14.255859 -3.139258 L -14.258008 -3.162109 L -14.261914 -3.207812 L -14.263672 -3.230664 L -14.26543 -3.253711 L -14.266992 -3.276562 L -14.268555 -3.299805 L -14.269922 -3.322852 L -14.271289 -3.346094 L -14.273633 -3.392578 L -14.274609 -3.416016 L -14.275586 -3.439258 L -14.276367 -3.462695 L -14.277148 -3.486328 L -14.277734 -3.509766 L -14.27832 -3.533398 L -14.278711 -3.557031 L -14.279102 -3.604297 L -14.279297 -3.628125 L -14.279297 -3.651758 L -14.279102 -3.675586 L -14.278906 -3.699609 L -14.278516 -3.723437 L -14.278125 -3.747461 L -14.277539 -3.771289 L -14.276953 -3.795312 L -14.276172 -3.819336 L -14.275391 -3.843555 L -14.274414 -3.867578 L -14.27207 -3.916016 L -14.269336 -3.964453 L -14.266211 -4.012891 L -14.264453 -4.037305 L -14.2625 -4.061523 L -14.260547 -4.085938 L -14.25625 -4.134766 L -14.251563 -4.183594 L -14.249023 -4.208008 L -14.246289 -4.232617 L -14.243555 -4.257031 L -14.240625 -4.281641 L -14.237695 -4.306055 L -14.23457 -4.330664 L -14.23125 -4.355273 L -14.22793 -4.379687 L -14.224609 -4.404297 L -14.220898 -4.428906 L -14.217383 -4.453516 L -14.20957 -4.502734 L -14.201367 -4.551953 L -14.19707 -4.576562 L -14.192773 -4.601367 L -14.188281 -4.625977 L -14.178906 -4.675195 L -14.169141 -4.724414 L -14.164062 -4.749023 L -14.153516 -4.798242 L -14.142578 -4.847461 L -14.136914 -4.87207 L -14.125195 -4.921289 L -14.119141 -4.945898 L -14.113086 -4.970312 L -14.100586 -5.019531 L -14.093945 -5.043945 L -14.0875 -5.068555 L -14.080664 -5.092969 L -14.074023 -5.117383 L -14.059961 -5.166211 L -14.045508 -5.215039 L -14.038086 -5.239453 L -14.030664 -5.263672 L -14.023047 -5.288086 L -14.007422 -5.336523 L -13.991406 -5.384961 L -13.983203 -5.408984 L -13.974805 -5.433203 L -13.958008 -5.48125 L -13.949414 -5.505273 L -13.940625 -5.529297 L -13.931641 -5.55332 L -13.922656 -5.577148 L -13.913672 -5.601172 L -13.904492 -5.625 L -13.895117 -5.648633 L -13.885742 -5.672461 L -13.876172 -5.696289 L -13.866602 -5.719922 L -13.856836 -5.743555 L -13.84707 -5.766992 L -13.837109 -5.790625 L -13.816797 -5.8375 L -13.806445 -5.860938 L -13.796094 -5.88418 L -13.785742 -5.907617 L -13.775 -5.930859 L -13.764453 -5.953906 L -13.753516 -5.977148 L -13.731641 -6.023242 L -13.720508 -6.046289 L -13.709375 -6.069141 L -13.698047 -6.091992 L -13.686523 -6.114844 L -13.663477 -6.160156 L -13.651758 -6.182812 L -13.639844 -6.205273 L -13.62793 -6.22793 L -13.616016 -6.250195 L -13.603906 -6.272656 L -13.579297 -6.317187 L -13.566992 -6.339258 L -13.554492 -6.361328 L -13.529102 -6.405469 L -13.516406 -6.427344 L -13.503516 -6.449023 L -13.49043 -6.470898 L -13.477539 -6.492578 L -13.437695 -6.557031 L -13.424219 -6.578516 L -13.410742 -6.599805 L -13.397266 -6.620898 L -13.383594 -6.642188 L -13.369727 -6.663086 L -13.355859 -6.68418 L -13.341992 -6.705078 L -13.32793 -6.725781 L -13.313867 -6.74668 L -13.299805 -6.767188 L -13.285352 -6.787891 L -13.271094 -6.808398 L -13.242188 -6.849023 L -13.227539 -6.869336 L -13.198242 -6.90957 L -13.168555 -6.949414 L -13.123437 -7.008594 L -13.108203 -7.028125 L -13.077734 -7.066797 L -13.062305 -7.086133 L -13.046875 -7.105273 L -13.03125 -7.124414 L -13.01582 -7.143359 L -13 -7.162109 L -12.984375 -7.181055 L -12.968555 -7.199609 L -12.952734 -7.218359 L -12.936914 -7.236719 L -12.904883 -7.273438 L -12.888672 -7.291602 L -12.872656 -7.309766 L -12.856445 -7.327734 L -12.840039 -7.345703 L -12.823828 -7.363477 L -12.807422 -7.38125 L -12.774609 -7.416406 L -12.741406 -7.451172 L -12.724805 -7.468359 L -12.708008 -7.485352 L -12.691406 -7.502344 L -12.674609 -7.519336 L -12.657813 -7.536133 L -12.64082 -7.55293 L -12.624023 -7.569336 L -12.607031 -7.585938 L -12.590039 -7.602344 L -12.573047 -7.618555 L -12.555859 -7.634766 L -12.538867 -7.650781 L -12.52168 -7.666797 L -12.504492 -7.682617 L -12.487109 -7.698437 L -12.469922 -7.714062 L -12.452539 -7.729492 L -12.435352 -7.744922 L -12.417969 -7.760352 L -12.400586 -7.775586 L -12.383008 -7.790625 L -12.365625 -7.805664 L -12.348047 -7.820508 L -12.330664 -7.835352 L -12.295508 -7.864648 L -12.27793 -7.879102 L -12.260156 -7.893359 L -12.225 -7.921875 L -12.207227 -7.935937 L -12.189453 -7.949805 L -12.171875 -7.963672 L -12.136328 -7.991016 L -12.118555 -8.004492 L -12.083008 -8.031055 L -12.065039 -8.044141 L -12.029492 -8.070312 L -12.011523 -8.083008 L -11.975977 -8.108398 L -11.958008 -8.120898 L -11.940234 -8.133398 L -11.922266 -8.145703 L -11.904297 -8.157812 L -11.886523 -8.169922 L -11.868555 -8.181836 L -11.850781 -8.19375 L -11.814844 -8.217187 L -11.79707 -8.228711 L -11.779102 -8.240039 L -11.761328 -8.251367 L -11.743359 -8.262695 L -11.725586 -8.273828 L -11.707617 -8.284766 L -11.689844 -8.295703 L -11.67207 -8.306445 L -11.654102 -8.317187 L -11.618555 -8.338281 L -11.600781 -8.348633 L -11.547461 -8.379102 L -11.529687 -8.389062 L -11.512109 -8.398828 L -11.494336 -8.408594 L -11.476758 -8.418359 L -11.458984 -8.42793 L -11.423828 -8.44668 L -11.388672 -8.465039 L -11.353516 -8.483008 L -11.31875 -8.500586 L -11.301172 -8.50918 L -11.283789 -8.517773 L -11.266406 -8.526172 L -11.249219 -8.534375 L -11.231836 -8.542773 L -11.214648 -8.550781 L -11.197461 -8.558984 L -11.145898 -8.582422 L -11.128906 -8.590039 L -11.111719 -8.597656 L -11.094727 -8.605273 L -11.07793 -8.6125 L -11.060937 -8.619922 L -11.044141 -8.627148 L -11.027148 -8.63418 L -11.010352 -8.641211 L -10.99375 -8.648047 L -10.976953 -8.654883 L -10.960352 -8.661719 L -10.927148 -8.675 L -10.910742 -8.681445 L -10.894141 -8.687891 L -10.877734 -8.694141 L -10.861523 -8.700391 L -10.845117 -8.706445 L -10.812695 -8.718555 L -10.796484 -8.724414 L -10.780469 -8.730273 L -10.732422 -8.747266 L -10.716602 -8.752734 L -10.700781 -8.758008 L -10.685156 -8.763477 L -10.669336 -8.76875 L -10.653711 -8.773828 L -10.638281 -8.778906 L -10.622656 -8.783984 L -10.607227 -8.788867 L -10.591992 -8.79375 L -10.576562 -8.798633 L -10.546094 -8.808008 L -10.531055 -8.812695 L -10.500977 -8.82168 L -10.456445 -8.83457 L -10.4125 -8.846875 L -10.398047 -8.850977 L -10.383594 -8.854883 L -10.369336 -8.858789 L -10.34082 -8.866211 L -10.312695 -8.873633 L -10.298633 -8.877148 L -10.270898 -8.88418 L -10.257227 -8.8875 L -10.243359 -8.891016 L -10.229883 -8.894336 L -10.216406 -8.897461 L -10.20293 -8.900781 L -10.189453 -8.903906 L -10.176172 -8.907031 L -10.162891 -8.909961 L -10.149805 -8.913086 L -10.136719 -8.916016 L -10.123828 -8.918945 L -10.110937 -8.92168 L -10.098047 -8.924609 L -10.072656 -8.930078 L -10.047656 -8.935547 L -10.035156 -8.938086 L -10.022852 -8.940625 L -10.010742 -8.943164 L -9.998437 -8.945703 L -9.986523 -8.948242 L -9.974414 -8.950586 L -9.9625 -8.953125 L -9.927344 -8.960156 L -9.91582 -8.962305 L -9.904297 -8.964648 L -9.892773 -8.966797 L -9.881445 -8.968945 L -9.870313 -8.971289 L -9.85918 -8.973437 L -9.848047 -8.975391 L -9.826172 -8.979688 L -9.81543 -8.981641 L -9.804688 -8.983789 L -9.783594 -8.987695 L -9.773047 -8.989844 L -9.762695 -8.991797 L -9.752539 -8.99375 L -9.742188 -8.995703 L -9.732227 -8.997656 L -9.72207 -8.999414 L -9.712305 -9.001367 L -9.702344 -9.00332 L -9.692578 -9.005273 L -9.683008 -9.007031 L -9.673437 -9.008984 L -9.663867 -9.010742 L -9.654492 -9.012695 L -9.645117 -9.014453 L -9.635938 -9.016406 L -9.626758 -9.018164 L -9.617578 -9.020117 L -9.608594 -9.021875 L -9.599805 -9.023828 L -9.591016 -9.025586 L -9.582227 -9.027539 L -9.573633 -9.029492 L -9.565039 -9.03125 L -9.556641 -9.033203 L -9.548242 -9.034961 L -9.539844 -9.036914 L -9.531641 -9.038867 L -9.523633 -9.040625 L -9.51543 -9.042578 L -9.507617 -9.044531 L -9.499609 -9.046484 L -9.491992 -9.048437 L -9.48418 -9.050391 L -9.476562 -9.052344 L -9.468945 -9.054492 L -9.461523 -9.056445 L -9.454297 -9.058398 L -9.446875 -9.060547 L -9.439648 -9.062695 L -9.432617 -9.064648 L -9.418555 -9.068945 L -9.404883 -9.073242 L -9.398242 -9.075586 L -9.391602 -9.077734 L -9.384961 -9.080078 L -9.365625 -9.087109 L -9.359375 -9.089453 L -9.35332 -9.091797 L -9.341211 -9.096875 L -9.335156 -9.099219 L -9.329297 -9.101953 L -9.323633 -9.104492 L -9.317773 -9.107031 L -9.312109 -9.109766 L -9.295703 -9.117969 L -9.29043 -9.120898 L -9.284961 -9.123633 L -9.279883 -9.126562 L -9.274609 -9.129492 L -9.269727 -9.132617 L -9.264648 -9.135547 L -9.254883 -9.141797 L -9.25 -9.145117 L -9.245313 -9.148242 L -9.240625 -9.151563 L -9.236133 -9.154883 L -9.231445 -9.158398 L -9.226953 -9.161719 L -9.218359 -9.16875 L -9.214063 -9.172461 L -9.209766 -9.175977 L -9.205664 -9.179688 L -9.201562 -9.183594 L -9.197461 -9.187305 L -9.189648 -9.195117 L -9.185742 -9.199219 L -9.182031 -9.20332 L -9.178125 -9.207422 L -9.174609 -9.211523 L -9.170898 -9.21582 L -9.163867 -9.224414 L -9.156836 -9.233398 L -9.153516 -9.237891 L -9.146875 -9.247266 L -9.14375 -9.251953 L -9.1375 -9.261719 L -9.134375 -9.266797 L -9.13125 -9.27168 L -9.12832 -9.276758 L -9.122461 -9.287305 L -9.119727 -9.292578 L -9.116797 -9.297852 L -9.114062 -9.30332 L -9.111328 -9.308984 L -9.108594 -9.314453 L -9.106055 -9.320117 L -9.10332 -9.325977 L -9.098242 -9.337695 L -9.095703 -9.34375 L -9.093359 -9.349805 L -9.09082 -9.355859 L -9.083789 -9.374609 L -9.081445 -9.381055 L -9.076758 -9.394336 L -9.072461 -9.407617 L -9.070312 -9.414453 L -9.067969 -9.421484 L -9.066016 -9.428516 L -9.063867 -9.435547 L -9.05957 -9.45 L -9.057617 -9.457227 L -9.055664 -9.464648 L -9.053516 -9.47207 L -9.049609 -9.487305 L -9.045703 -9.50293 L -9.039844 -9.526953 L -9.038086 -9.535156 L -9.036133 -9.543359 L -9.03418 -9.551758 L -9.032422 -9.560156 L -9.030469 -9.568555 L -9.028711 -9.577148 L -9.026758 -9.585938 L -9.025 -9.594531 L -9.023047 -9.603516 L -9.021289 -9.612305 L -9.019336 -9.621484 L -9.017578 -9.630469 L -9.015625 -9.639648 L -9.013867 -9.649023 L -9.009961 -9.667773 L -9.008203 -9.677344 L -9.00625 -9.686914 L -9.004492 -9.69668 L -9.002539 -9.706445 L -8.998633 -9.726367 L -8.996875 -9.736328 L -8.994922 -9.746484 L -8.992969 -9.756836 L -8.991016 -9.766992 L -8.988867 -9.777539 L -8.986914 -9.787891 L -8.984961 -9.798437 L -8.983008 -9.80918 L -8.980859 -9.819922 L -8.978711 -9.830859 L -8.976758 -9.841602 L -8.970312 -9.875 L -8.968164 -9.886328 L -8.96582 -9.897656 L -8.963672 -9.908984 L -8.961328 -9.920508 L -8.95918 -9.932227 L -8.956836 -9.94375 L -8.954492 -9.955664 L -8.951953 -9.967383 L -8.949609 -9.979492 L -8.94707 -9.991406 L -8.944727 -10.003516 L -8.939648 -10.028125 L -8.936914 -10.04043 L -8.934375 -10.052734 L -8.931641 -10.06543 L -8.928906 -10.07793 L -8.926172 -10.090625 L -8.923437 -10.103516 L -8.920508 -10.116211 L -8.917578 -10.129102 L -8.911719 -10.155273 L -8.908789 -10.168555 L -8.905664 -10.181641 L -8.902539 -10.195117 L -8.899414 -10.208398 L -8.896094 -10.221875 L -8.882812 -10.276563 L -8.879297 -10.29043 L -8.875781 -10.304492 L -8.864648 -10.34668 L -8.860937 -10.360937 L -8.857031 -10.375195 L -8.845312 -10.418555 L -8.841211 -10.433203 L -8.836914 -10.447852 L -8.832812 -10.462695 L -8.824219 -10.492383 L -8.819727 -10.507227 L -8.810742 -10.537305 L -8.79668 -10.583008 L -8.791797 -10.598242 L -8.786914 -10.613672 L -8.781836 -10.629102 L -8.77168 -10.660352 L -8.761133 -10.691602 L -8.755859 -10.707422 L -8.744922 -10.739062 L -8.72793 -10.787109 L -8.72207 -10.80332 L -8.716016 -10.819336 L -8.709961 -10.835547 L -8.703906 -10.851953 L -8.697852 -10.868164 L -8.691602 -10.88457 L -8.685156 -10.900977 L -8.678711 -10.917578 L -8.672266 -10.933984 L -8.658984 -10.967187 L -8.652148 -10.983984 L -8.645312 -11.000586 L -8.63125 -11.03418 L -8.624023 -11.050977 L -8.60957 -11.084961 L -8.602148 -11.101953 L -8.586914 -11.135938 L -8.579297 -11.153125 L -8.571484 -11.170117 L -8.555469 -11.204492 L -8.547461 -11.221875 L -8.539258 -11.239062 L -8.531055 -11.256445 L -8.522656 -11.273633 L -8.514062 -11.291016 L -8.505469 -11.308594 L -8.496875 -11.325977 L -8.488086 -11.343359 L -8.479297 -11.360938 L -8.470312 -11.37832 L -8.442773 -11.431055 L -8.433398 -11.448633 L -8.423828 -11.466406 L -8.414258 -11.483984 L -8.404687 -11.501758 L -8.394727 -11.519336 L -8.384961 -11.537109 L -8.375 -11.554883 L -8.354688 -11.59043 L -8.344336 -11.608203 L -8.333789 -11.625977 L -8.323438 -11.64375 L -8.312695 -11.661523 L -8.301953 -11.679492 L -8.291211 -11.697266 L -8.280273 -11.715039 L -8.269141 -11.733008 L -8.258008 -11.750781 L -8.24668 -11.76875 L -8.235352 -11.786523 L -8.212305 -11.822461 L -8.200586 -11.840234 L -8.188867 -11.858203 L -8.176953 -11.875977 L -8.152734 -11.911914 L -8.14043 -11.929688 L -8.128125 -11.947656 L -8.11582 -11.96543 L -8.103125 -11.983398 L -8.077734 -12.018945 L -8.064844 -12.036914 L -8.051953 -12.054688 L -8.038672 -12.072461 L -8.025586 -12.09043 L -8.012305 -12.108203 L -7.985352 -12.14375 L -7.97168 -12.161523 L -7.957812 -12.179102 L -7.930078 -12.214648 L -7.916016 -12.232227 L -7.901758 -12.25 L -7.8875 -12.267578 L -7.858594 -12.302734 L -7.829297 -12.337891 L -7.814453 -12.355469 L -7.784375 -12.390234 L -7.769141 -12.407813 L -7.738672 -12.442578 L -7.723047 -12.459766 L -7.707617 -12.477148 L -7.660156 -12.528711 L -7.628125 -12.563086 L -7.611719 -12.580078 L -7.595508 -12.59707 L -7.579102 -12.614062 L -7.5625 -12.631055 L -7.545898 -12.647852 L -7.529102 -12.664844 L -7.512305 -12.681641 L -7.495312 -12.698438 L -7.47832 -12.715039 L -7.443945 -12.748242 L -7.40918 -12.781445 L -7.391602 -12.797852 L -7.356055 -12.830664 L -7.338281 -12.846875 L -7.302344 -12.879297 L -7.28418 -12.895508 L -7.229102 -12.943555 L -7.191992 -12.975195 L -7.173242 -12.991016 L -7.116406 -13.037891 L -7.078125 -13.06875 L -7.058789 -13.083984 L -7.039453 -13.099414 L -7.019922 -13.114648 L -7.000391 -13.129687 L -6.960938 -13.159766 L -6.941016 -13.174805 L -6.921094 -13.189648 L -6.901172 -13.204297 L -6.881055 -13.219141 L -6.860938 -13.233594 L -6.840625 -13.248242 L -6.820312 -13.262695 L -6.799805 -13.277148 L -6.779297 -13.291406 L -6.758594 -13.305664 L -6.717187 -13.333789 L -6.696289 -13.347852 L -6.654492 -13.375586 L -6.633398 -13.389258 L -6.612109 -13.40293 L -6.548242 -13.443359 L -6.526758 -13.456641 L -6.461719 -13.495898 L -6.440039 -13.508789 L -6.418164 -13.52168 L -6.396289 -13.534375 L -6.374219 -13.54707 L -6.330078 -13.57207 L -6.285547 -13.59668 L -6.241016 -13.620898 L -6.218555 -13.633008 L -6.195898 -13.644727 L -6.173438 -13.656641 L -6.150781 -13.668359 L -6.128125 -13.679883 L -6.105273 -13.691406 L -6.05957 -13.714063 L -6.036719 -13.725195 L -6.013672 -13.736328 L -5.990625 -13.747266 L -5.967578 -13.758008 L -5.921094 -13.779492 L -5.897852 -13.790039 L -5.874609 -13.800391 L -5.827734 -13.821094 L -5.804297 -13.83125 L -5.780859 -13.841211 L -5.757227 -13.851172 L -5.709961 -13.870703 L -5.686328 -13.880273 L -5.6625 -13.889648 L -5.638867 -13.899023 L -5.615039 -13.908398 L -5.591211 -13.917383 L -5.567187 -13.926562 L -5.543359 -13.935352 L -5.495312 -13.95293 L -5.471289 -13.961523 L -5.447266 -13.969922 L -5.423047 -13.97832 L -5.399023 -13.986523 L -5.374805 -13.994727 L -5.326367 -14.010742 L -5.302148 -14.018555 L -5.27793 -14.026172 L -5.253516 -14.033789 L -5.229297 -14.041211 L -5.204883 -14.048633 L -5.180469 -14.055859 L -5.131641 -14.069922 L -5.082812 -14.083594 L -5.058203 -14.090234 L -5.033789 -14.09668 L -5.00918 -14.103125 L -4.984766 -14.10957 L -4.935547 -14.12168 L -4.911133 -14.127734 L -4.886523 -14.133594 L -4.837305 -14.144922 L -4.812695 -14.150391 L -4.738867 -14.166211 L -4.714258 -14.171094 L -4.689453 -14.176172 L -4.640234 -14.185547 L -4.591016 -14.194531 L -4.541797 -14.203125 L -4.517187 -14.207227 L -4.467969 -14.215039 L -4.41875 -14.222461 L -4.369531 -14.229492 L -4.344922 -14.232617 L -4.320508 -14.235938 L -4.271289 -14.241797 L -4.246875 -14.244727 L -4.222266 -14.247461 L -4.173437 -14.252539 L -4.124609 -14.257227 L -4.100195 -14.259375 L -4.051367 -14.263281 L -4.027148 -14.265234 L -4.002734 -14.266797 L -3.954297 -14.269922 L -3.905859 -14.272656 L -3.881641 -14.273633 L -3.857617 -14.274805 L -3.833398 -14.275781 L -3.809375 -14.276563 L -3.785352 -14.277148 L -3.761328 -14.27793 L -3.7375 -14.27832 L -3.713477 -14.278711 L -3.689648 -14.279102 L -3.66582 -14.279102 L -3.641992 -14.279297 L -3.618164 -14.279297 L -3.594531 -14.279102 L -3.570703 -14.278906 L -3.523438 -14.278125 L -3.5 -14.277539 L -3.476367 -14.276758 L -3.45293 -14.276172 L -3.429492 -14.275195 L -3.40625 -14.274219 L -3.382812 -14.273242 L -3.35957 -14.27207 L -3.336328 -14.270703 L -3.313281 -14.269336 L -3.290039 -14.267969 L -3.266992 -14.266406 L -3.244141 -14.264648 L -3.221094 -14.263086 L -3.152539 -14.257227 L -3.129883 -14.255078 L -3.08457 -14.250391 L -3.062109 -14.248047 L -3.017187 -14.242969 L -2.994727 -14.240234 L -2.972461 -14.2375 L -2.950195 -14.23457 L -2.906055 -14.228711 L -2.883984 -14.225586 L -2.861914 -14.222266 L -2.840039 -14.218945 L -2.818359 -14.215625 L -2.796484 -14.212109 L -2.774805 -14.208594 L -2.753125 -14.204883 L -2.710156 -14.197461 L -2.688867 -14.193555 L -2.667383 -14.189648 L -2.646289 -14.185547 L -2.625 -14.181445 L -2.603906 -14.177148 L -2.582812 -14.173047 L -2.561914 -14.168555 L -2.541016 -14.164258 L -2.520312 -14.159766 L -2.478906 -14.150391 L -2.437891 -14.141016 L -2.417383 -14.136133 L -2.39707 -14.13125 L -2.336719 -14.116016 L -2.316797 -14.110938 L -2.296875 -14.105664 L -2.276953 -14.100195 L -2.257227 -14.094922 L -2.237695 -14.089453 L -2.217969 -14.083984 L -2.198633 -14.07832 L -2.179102 -14.072656 L -2.159961 -14.066992 L -2.140625 -14.061328 L -2.121484 -14.055469 L -2.083594 -14.04375 L -2.064648 -14.037695 L -2.045898 -14.031836 L -2.027148 -14.025781 L -2.008594 -14.019531 L -1.990039 -14.013477 L -1.95332 -14.000977 L -1.935156 -13.994531 L -1.916992 -13.988281 L -1.863086 -13.968945 L -1.845312 -13.962305 L -1.827734 -13.955664 L -1.810156 -13.949219 L -1.792578 -13.942383 L -1.775195 -13.935742 L -1.758008 -13.929102 L -1.723633 -13.91543 L -1.689648 -13.901758 L -1.672852 -13.894727 L -1.65625 -13.887891 L -1.623047 -13.873828 L -1.590234 -13.859766 L -1.574023 -13.852734 L -1.557812 -13.845508 L -1.541797 -13.838477 L -1.525781 -13.83125 L -1.494141 -13.816797 L -1.478516 -13.80957 L -1.463086 -13.802344 L -1.447461 -13.795117 L -1.432227 -13.787891 L -1.416797 -13.780469 L -1.401758 -13.773242 L -1.386523 -13.76582 L -1.37168 -13.758594 L -1.356641 -13.751172 L -1.312695 -13.728906 L -1.283789 -13.714063 L -1.241016 -13.691797 L -1.227148 -13.684375 L -1.213086 -13.676953 L -1.199414 -13.669531 L -1.185547 -13.662109 L -1.17207 -13.654687 L -1.158398 -13.647266 L -1.144922 -13.639844 L -1.118359 -13.625 L -1.105273 -13.617383 L -1.092187 -13.609961 L -1.079297 -13.602539 L -1.066406 -13.595313 L -1.053516 -13.587891 L -1.04082 -13.580469 L -1.01582 -13.565625 L -1.00332 -13.558398 L -0.991016 -13.550977 L -0.978906 -13.543555 L -0.954687 -13.529102 L -0.942773 -13.52168 L -0.930859 -13.514453 L -0.907422 -13.5 L -0.884375 -13.485547 L -0.873047 -13.478516 L -0.861719 -13.471289 L -0.850391 -13.464258 L -0.839258 -13.457031 L -0.82832 -13.45 L -0.817187 -13.442969 L -0.806445 -13.435937 L -0.795703 -13.429102 L -0.784961 -13.42207 L -0.774219 -13.415234 L -0.763867 -13.408203 L -0.75332 -13.401367 L -0.742969 -13.394531 L -0.732617 -13.387891 L -0.722461 -13.381055 L -0.712305 -13.374414 L -0.692383 -13.361133 L -0.672852 -13.347852 L -0.663086 -13.341406 L -0.634375 -13.32207 L -0.625 -13.315625 L -0.61582 -13.309375 L -0.606445 -13.303125 L -0.597266 -13.296875 L -0.588281 -13.29082 L -0.579297 -13.28457 L -0.570312 -13.278516 L -0.561523 -13.272461 L -0.552734 -13.266602 L -0.543945 -13.260547 L -0.526758 -13.248828 L -0.518164 -13.243164 L -0.509766 -13.237305 L -0.501367 -13.231641 L -0.493164 -13.226172 L -0.484961 -13.220508 L -0.468555 -13.20957 L -0.460547 -13.204297 L -0.452734 -13.198828 L -0.444727 -13.193555 L -0.436914 -13.188477 L -0.429102 -13.183203 L -0.413867 -13.173047 L -0.398633 -13.163281 L -0.391211 -13.158398 L -0.383789 -13.153711 L -0.376367 -13.148828 L -0.369141 -13.144336 L -0.361914 -13.139648 L -0.347461 -13.130664 L -0.326367 -13.117773 L -0.319531 -13.113477 L -0.3125 -13.109375 L -0.305664 -13.105469 L -0.299023 -13.101367 L -0.292187 -13.097461 L -0.285547 -13.09375 L -0.278906 -13.089844 L -0.272266 -13.086133 L -0.26582 -13.082617 L -0.25918 -13.079102 L -0.252734 -13.075586 L -0.246289 -13.072266 L -0.239844 -13.06875 L -0.233594 -13.065625 L -0.227148 -13.0625 L -0.214648 -13.05625 L -0.208594 -13.05332 L -0.202344 -13.050391 L -0.196289 -13.047656 L -0.190039 -13.044922 L -0.183984 -13.042383 L -0.17793 -13.039648 L -0.171875 -13.037305 L -0.166016 -13.034766 L -0.159961 -13.032422 L -0.142383 -13.025977 L -0.124805 -13.020117 L -0.119141 -13.018359 L -0.113281 -13.016797 L -0.107617 -13.015039 L -0.101758 -13.013672 L -0.0960937 -13.012109 L -0.0847656 -13.009375 L -0.0791016 -13.008203 L -0.0734375 -13.007227 L -0.0677734 -13.006055 L -0.0621094 -13.005078 L -0.0566406 -13.004297 L -0.0453125 -13.002734 L -0.0398437 -13.002148 L -0.0341797 -13.001563 L -0.0287109 -13.001172 L -0.0230469 -13.000781 L -0.0175781 -13.000391 L -0.0119141 -13.000195 L -0.00644531 -13 L 0.0046875 -13 L 0.0103516 -13.000195 L 0.0158203 -13.000391 L 0.0214844 -13.000586 L 0.0269531 -13.000977 L 0.0326172 -13.001367 L 0.0380859 -13.001953 L 0.04375 -13.002539 L 0.0492188 -13.00332 L 0.0605469 -13.004883 L 0.0660156 -13.005859 L 0.0716797 -13.006836 L 0.0886719 -13.010352 L 0.1 -13.013086 L 0.105859 -13.014648 L 0.111523 -13.016211 L 0.117383 -13.017969 L 0.123047 -13.019727 L 0.128906 -13.021484 L 0.140625 -13.025391 L 0.158203 -13.031836 L 0.164258 -13.03418 L 0.170117 -13.036523 L 0.188281 -13.044141 L 0.200391 -13.049609 L 0.219141 -13.058398 L 0.231641 -13.064648 L 0.238086 -13.067773 L 0.244336 -13.071094 L 0.250781 -13.074609 L 0.257227 -13.07793 L 0.263672 -13.081445 L 0.290234 -13.096289 L 0.296875 -13.100195 L 0.303711 -13.104102 L 0.317383 -13.112305 L 0.324414 -13.116406 L 0.33125 -13.120703 L 0.345313 -13.129297 L 0.359766 -13.138281 L 0.366992 -13.142969 L 0.374219 -13.147461 L 0.381445 -13.152148 L 0.388867 -13.157031 L 0.396484 -13.161719 L 0.403906 -13.166602 L 0.411523 -13.17168 L 0.419141 -13.176562 L 0.426758 -13.181641 L 0.43457 -13.186914 L 0.442383 -13.191992 L 0.450195 -13.197266 L 0.458203 -13.202539 L 0.474219 -13.213477 L 0.490625 -13.224414 L 0.499023 -13.230078 L 0.507227 -13.235742 L 0.515625 -13.241406 L 0.524219 -13.24707 L 0.55 -13.264648 L 0.567578 -13.276758 L 0.585547 -13.288867 L 0.594531 -13.295117 L 0.603711 -13.301172 L 0.612891 -13.307422 L 0.622266 -13.313867 L 0.631641 -13.320117 L 0.641016 -13.326562 L 0.660156 -13.339453 L 0.669922 -13.345898 L 0.679688 -13.352539 L 0.689453 -13.358984 L 0.709375 -13.372266 L 0.719531 -13.379102 L 0.729688 -13.385742 L 0.739844 -13.392578 L 0.760547 -13.40625 L 0.781641 -13.419922 L 0.803125 -13.433984 L 0.814063 -13.44082 L 0.825 -13.447852 L 0.835938 -13.455078 L 0.858203 -13.469141 L 0.869531 -13.476367 L 0.880859 -13.483398 L 0.903906 -13.497852 L 0.939063 -13.519531 L 0.951172 -13.526758 L 0.963086 -13.53418 L 0.975195 -13.541406 L 0.987305 -13.548828 L 0.999609 -13.556055 L 1.012109 -13.563477 L 1.024414 -13.570898 L 1.037109 -13.578125 L 1.0625 -13.592969 L 1.088281 -13.607812 L 1.114453 -13.622656 L 1.154297 -13.644922 L 1.167969 -13.652344 L 1.181445 -13.659961 L 1.195117 -13.667383 L 1.222852 -13.682227 L 1.250977 -13.69707 L 1.29375 -13.719336 L 1.308203 -13.726758 L 1.3375 -13.741602 L 1.352344 -13.749023 L 1.367188 -13.75625 L 1.382031 -13.763672 L 1.39707 -13.770898 L 1.412305 -13.77832 L 1.427539 -13.785547 L 1.442969 -13.792969 L 1.473828 -13.807422 L 1.489453 -13.814648 L 1.536914 -13.836328 L 1.553125 -13.843359 L 1.569141 -13.850586 L 1.585352 -13.857617 L 1.63457 -13.878711 L 1.651172 -13.885742 L 1.667969 -13.892773 L 1.701563 -13.906445 L 1.718555 -13.913477 L 1.735547 -13.920117 L 1.752734 -13.926953 L 1.770117 -13.933789 L 1.804883 -13.94707 L 1.840039 -13.960352 L 1.857813 -13.966992 L 1.875586 -13.973437 L 1.911523 -13.986328 L 1.929688 -13.992773 L 1.947852 -13.999023 L 1.98457 -14.011523 L 2.003125 -14.017773 L 2.040234 -14.029883 L 2.058984 -14.035937 L 2.07793 -14.041992 L 2.11582 -14.053711 L 2.154102 -14.06543 L 2.192773 -14.076758 L 2.212109 -14.082227 L 2.231641 -14.087695 L 2.271094 -14.098633 L 2.29082 -14.103906 L 2.330664 -14.114453 L 2.391016 -14.129687 L 2.411328 -14.13457 L 2.431836 -14.139453 L 2.452148 -14.144336 L 2.472656 -14.149023 L 2.514063 -14.158398 L 2.534766 -14.162891 L 2.555664 -14.167383 L 2.576563 -14.17168 L 2.597656 -14.175977 L 2.61875 -14.180078 L 2.639844 -14.184375 L 2.661133 -14.188281 L 2.682422 -14.192383 L 2.703711 -14.196289 L 2.725195 -14.2 L 2.74668 -14.203906 L 2.768359 -14.207422 L 2.790039 -14.211133 L 2.811719 -14.214648 L 2.877344 -14.224609 L 2.921484 -14.230859 L 2.943555 -14.233789 L 2.96582 -14.236719 L 3.010352 -14.242188 L 3.077734 -14.249805 L 3.100391 -14.252148 L 3.145703 -14.256445 L 3.168555 -14.258594 L 3.214258 -14.2625 L 3.237109 -14.264258 L 3.260156 -14.26582 L 3.283203 -14.267578 L 3.30625 -14.268945 L 3.329492 -14.270312 L 3.352539 -14.27168 L 3.375977 -14.272852 L 3.399219 -14.274023 L 3.422461 -14.275 L 3.469336 -14.276563 L 3.492969 -14.277344 L 3.516406 -14.27793 L 3.587305 -14.279102 L 3.611133 -14.279297 L 3.658594 -14.279297 L 3.70625 -14.278906 L 3.730273 -14.278516 L 3.754102 -14.27793 L 3.802148 -14.276758 L 3.826172 -14.275977 L 3.850391 -14.275 L 3.874414 -14.274023 L 3.922852 -14.27168 L 3.971289 -14.268945 L 3.995508 -14.267383 L 4.019727 -14.265625 L 4.044141 -14.263867 L 4.068555 -14.261914 L 4.092773 -14.259961 L 4.141602 -14.255664 L 4.166016 -14.25332 L 4.190625 -14.250781 L 4.215039 -14.248242 L 4.239453 -14.245508 L 4.264063 -14.242773 L 4.288477 -14.239844 L 4.337695 -14.233594 L 4.362109 -14.230469 L 4.386719 -14.226953 L 4.411328 -14.223633 L 4.460547 -14.216211 L 4.509766 -14.208398 L 4.558984 -14.200195 L 4.583594 -14.195898 L 4.632812 -14.186914 L 4.657617 -14.182227 L 4.682227 -14.177539 L 4.706836 -14.172656 L 4.780664 -14.157422 L 4.854492 -14.141016 L 4.879102 -14.135352 L 4.92832 -14.123633 L 4.952734 -14.117578 L 5.001953 -14.105078 L 5.026367 -14.098633 L 5.050977 -14.092187 L 5.099805 -14.078906 L 5.124414 -14.07207 L 5.173242 -14.058008 L 5.197461 -14.050781 L 5.246289 -14.035937 L 5.270508 -14.028516 L 5.294922 -14.020898 L 5.319141 -14.013086 L 5.343359 -14.005078 L 5.367578 -13.997266 L 5.391797 -13.989062 L 5.41582 -13.980859 L 5.440039 -13.972461 L 5.464063 -13.964063 L 5.512109 -13.946875 L 5.536133 -13.938086 L 5.560156 -13.929102 L 5.607813 -13.911133 L 5.631641 -13.901758 L 5.655469 -13.892578 L 5.679297 -13.883008 L 5.726562 -13.863867 L 5.750195 -13.854102 L 5.773828 -13.844141 L 5.797266 -13.83418 L 5.844141 -13.813867 L 5.867578 -13.803516 L 5.89082 -13.793164 L 5.937305 -13.77207 L 5.960547 -13.761328 L 5.983594 -13.750391 L 6.006836 -13.739453 L 6.029688 -13.728516 L 6.052734 -13.717383 L 6.121289 -13.683398 L 6.143945 -13.67168 L 6.166602 -13.660156 L 6.189258 -13.648438 L 6.23418 -13.624609 L 6.256641 -13.6125 L 6.278906 -13.600391 L 6.323438 -13.575781 L 6.389648 -13.538281 L 6.411523 -13.525586 L 6.455273 -13.499805 L 6.498633 -13.473633 L 6.520117 -13.460547 L 6.541797 -13.447266 L 6.563086 -13.433984 L 6.58457 -13.420508 L 6.605664 -13.407031 L 6.626953 -13.393359 L 6.648047 -13.379687 L 6.669141 -13.36582 L 6.710938 -13.338086 L 6.731836 -13.324023 L 6.752539 -13.309961 L 6.773047 -13.295703 L 6.79375 -13.281445 L 6.814063 -13.266992 L 6.83457 -13.252539 L 6.854883 -13.238086 L 6.895117 -13.208789 L 6.915234 -13.193945 L 6.955078 -13.164258 L 6.994531 -13.13418 L 7.014063 -13.119141 L 7.033594 -13.103906 L 7.05293 -13.088672 L 7.072266 -13.073242 L 7.091602 -13.058008 L 7.110742 -13.042383 L 7.129688 -13.026953 L 7.167578 -12.995703 L 7.186328 -12.979883 L 7.223438 -12.948242 L 7.241992 -12.932227 L 7.260352 -12.916406 L 7.278711 -12.900195 L 7.296875 -12.88418 L 7.350781 -12.835547 L 7.386328 -12.802734 L 7.403906 -12.786328 L 7.421289 -12.769922 L 7.456055 -12.736719 L 7.473242 -12.720117 L 7.490234 -12.70332 L 7.507227 -12.686719 L 7.524023 -12.669922 L 7.54082 -12.65293 L 7.557617 -12.636133 L 7.574023 -12.619141 L 7.590625 -12.602148 L 7.606836 -12.585156 L 7.623242 -12.568164 L 7.639258 -12.550977 L 7.655273 -12.533984 L 7.671289 -12.516797 L 7.687109 -12.499609 L 7.70293 -12.482227 L 7.718555 -12.465039 L 7.749414 -12.430273 L 7.779883 -12.395508 L 7.794922 -12.378125 L 7.809961 -12.360547 L 7.824805 -12.343164 L 7.86875 -12.29043 L 7.883203 -12.272852 L 7.897461 -12.255273 L 7.911719 -12.2375 L 7.925781 -12.219922 L 7.939844 -12.202148 L 7.953711 -12.18457 L 7.967578 -12.166797 L 7.98125 -12.149023 L 8.008203 -12.113477 L 8.034766 -12.07793 L 8.047852 -12.060156 L 8.060938 -12.042188 L 8.086719 -12.006641 L 8.099414 -11.988672 L 8.111914 -11.970898 L 8.124414 -11.95293 L 8.136914 -11.935156 L 8.149023 -11.917188 L 8.161328 -11.899219 L 8.173242 -11.881445 L 8.185156 -11.863477 L 8.19707 -11.845703 L 8.208789 -11.827734 L 8.220508 -11.809961 L 8.232031 -11.791992 L 8.243359 -11.774023 L 8.254688 -11.75625 L 8.26582 -11.738281 L 8.276953 -11.720508 L 8.287891 -11.702734 L 8.298828 -11.684766 L 8.30957 -11.666992 L 8.320117 -11.649219 L 8.330664 -11.63125 L 8.341211 -11.613477 L 8.351562 -11.595703 L 8.371875 -11.560156 L 8.381836 -11.542383 L 8.391797 -11.524805 L 8.401758 -11.507031 L 8.411328 -11.489258 L 8.421094 -11.47168 L 8.430469 -11.454102 L 8.439844 -11.436328 L 8.449219 -11.41875 L 8.467578 -11.383594 L 8.476562 -11.366211 L 8.485547 -11.348633 L 8.494336 -11.33125 L 8.50293 -11.313672 L 8.520117 -11.278906 L 8.528516 -11.261523 L 8.536719 -11.244336 L 8.544922 -11.226953 L 8.553125 -11.209766 L 8.569141 -11.175391 L 8.576953 -11.158203 L 8.58457 -11.141016 L 8.599805 -11.107031 L 8.614648 -11.073047 L 8.621875 -11.056055 L 8.629102 -11.039258 L 8.643164 -11.005664 L 8.65 -10.988867 L 8.663672 -10.955664 L 8.670313 -10.939062 L 8.676758 -10.922461 L 8.683203 -10.906055 L 8.689648 -10.889453 L 8.695898 -10.873242 L 8.702148 -10.856836 L 8.708203 -10.84043 L 8.720313 -10.808008 L 8.726172 -10.791992 L 8.748828 -10.72793 L 8.754297 -10.712109 L 8.75957 -10.696289 L 8.775391 -10.649414 L 8.780469 -10.633789 L 8.795117 -10.5875 L 8.8 -10.572266 L 8.804688 -10.557031 L 8.809375 -10.541992 L 8.813867 -10.526758 L 8.818359 -10.511719 L 8.822852 -10.496875 L 8.827148 -10.481836 L 8.831445 -10.466992 L 8.835742 -10.452344 L 8.848047 -10.408398 L 8.855859 -10.379492 L 8.863672 -10.350977 L 8.867383 -10.336719 L 8.871094 -10.322656 L 8.874609 -10.308594 L 8.885156 -10.266992 L 8.895117 -10.225977 L 8.898438 -10.2125 L 8.901563 -10.199023 L 8.910938 -10.15918 L 8.916797 -10.133008 L 8.919727 -10.120117 L 8.922461 -10.107227 L 8.925391 -10.094531 L 8.930859 -10.069141 L 8.933594 -10.056641 L 8.936133 -10.044141 L 8.938867 -10.031641 L 8.941406 -10.019336 L 8.946484 -9.995117 L 8.948828 -9.983008 L 8.951367 -9.971094 L 8.953711 -9.95918 L 8.960742 -9.924023 L 8.962891 -9.9125 L 8.965234 -9.900977 L 8.967383 -9.889648 L 8.969727 -9.87832 L 8.974023 -9.856055 L 8.975977 -9.844922 L 8.978125 -9.833984 L 8.980273 -9.823242 L 8.982227 -9.8125 L 8.984375 -9.801758 L 8.988281 -9.780664 L 8.99043 -9.770117 L 8.992383 -9.759766 L 8.996289 -9.739453 L 8.998047 -9.729297 L 9.001953 -9.709375 L 9.003906 -9.699609 L 9.005664 -9.689844 L 9.00957 -9.670703 L 9.011328 -9.661133 L 9.013281 -9.651758 L 9.015039 -9.642383 L 9.016992 -9.633203 L 9.01875 -9.624219 L 9.020703 -9.615039 L 9.022461 -9.606055 L 9.024414 -9.597266 L 9.026172 -9.588477 L 9.028125 -9.579687 L 9.029883 -9.571094 L 9.031836 -9.562695 L 9.033594 -9.554102 L 9.035547 -9.545898 L 9.0375 -9.5375 L 9.039258 -9.529297 L 9.045117 -9.505273 L 9.049023 -9.489648 L 9.05293 -9.474414 L 9.055078 -9.466992 L 9.058984 -9.452148 L 9.063281 -9.437695 L 9.065234 -9.430664 L 9.069531 -9.416602 L 9.07168 -9.409766 L 9.074023 -9.40293 L 9.07832 -9.389648 L 9.080664 -9.383008 L 9.083008 -9.376562 L 9.085352 -9.370313 L 9.087695 -9.363867 L 9.090039 -9.357617 L 9.092578 -9.351562 L 9.094922 -9.345508 L 9.097461 -9.339453 L 9.102539 -9.327734 L 9.105273 -9.321875 L 9.107813 -9.316211 L 9.110547 -9.310547 L 9.11875 -9.294141 L 9.127539 -9.27832 L 9.133398 -9.268164 L 9.145898 -9.248633 L 9.152539 -9.239258 L 9.155859 -9.234766 L 9.159375 -9.230273 L 9.162695 -9.225781 L 9.166211 -9.221484 L 9.169727 -9.216992 L 9.173438 -9.212891 L 9.177148 -9.208594 L 9.18457 -9.200391 L 9.188477 -9.196289 L 9.196289 -9.188477 L 9.200391 -9.184766 L 9.204492 -9.180859 L 9.212695 -9.173437 L 9.221289 -9.166406 L 9.225781 -9.162891 L 9.230078 -9.159375 L 9.234766 -9.155859 L 9.239258 -9.152539 L 9.243945 -9.149219 L 9.248633 -9.146094 L 9.25332 -9.142773 L 9.263086 -9.136523 L 9.268164 -9.133398 L 9.283398 -9.124609 L 9.288672 -9.12168 L 9.294141 -9.11875 L 9.299414 -9.116016 L 9.304883 -9.113281 L 9.316211 -9.107812 L 9.321875 -9.105273 L 9.327539 -9.102539 L 9.333398 -9.1 L 9.339453 -9.097461 L 9.345313 -9.095117 L 9.351367 -9.092578 L 9.357617 -9.090234 L 9.363867 -9.087695 L 9.370117 -9.085352 L 9.383008 -9.080664 L 9.389453 -9.078516 L 9.396094 -9.076172 L 9.40293 -9.074023 L 9.40957 -9.071875 L 9.416406 -9.069531 L 9.430469 -9.065234 L 9.4375 -9.063281 L 9.444727 -9.061133 L 9.451953 -9.05918 L 9.459375 -9.057031 L 9.466797 -9.055078 L 9.474219 -9.05293 L 9.481836 -9.050977 L 9.489648 -9.049023 L 9.497266 -9.04707 L 9.505273 -9.045117 L 9.513086 -9.043164 L 9.521094 -9.041211 L 9.529297 -9.039453 L 9.545703 -9.035547 L 9.554102 -9.033789 L 9.5625 -9.031836 L 9.571094 -9.029883 L 9.579688 -9.028125 L 9.588281 -9.026172 L 9.59707 -9.024414 L 9.606055 -9.022461 L 9.614844 -9.020703 L 9.624023 -9.01875 L 9.633008 -9.016992 L 9.642383 -9.015039 L 9.651563 -9.013281 L 9.660938 -9.011328 L 9.670508 -9.00957 L 9.680078 -9.007617 L 9.689648 -9.005859 L 9.70918 -9.001953 L 9.719141 -9 L 9.729102 -8.998242 L 9.75957 -8.992383 L 9.769922 -8.99043 L 9.780469 -8.988477 L 9.791016 -8.986328 L 9.801563 -8.984375 L 9.812305 -8.982422 L 9.833789 -8.978125 L 9.844727 -8.976172 L 9.878125 -8.969727 L 9.889453 -8.967578 L 9.900781 -8.965234 L 9.912305 -8.963086 L 9.923828 -8.960742 L 9.958984 -8.953711 L 9.970898 -8.951367 L 9.982813 -8.948828 L 9.994922 -8.946484 L 10.019141 -8.941406 L 10.031445 -8.938867 L 10.043945 -8.936328 L 10.068945 -8.930859 L 10.107031 -8.922656 L 10.132812 -8.916797 L 10.158984 -8.910937 L 10.198828 -8.901563 L 10.225781 -8.895312 L 10.239258 -8.891992 L 10.25293 -8.888672 L 10.266797 -8.885156 L 10.280469 -8.881836 L 10.294531 -8.87832 L 10.308398 -8.874609 L 10.322461 -8.871094 L 10.336523 -8.867383 L 10.365039 -8.859961 L 10.379297 -8.856055 L 10.39375 -8.852148 L 10.408203 -8.848047 L 10.422852 -8.844141 L 10.437305 -8.840039 L 10.452148 -8.835742 L 10.466797 -8.831641 L 10.481641 -8.827344 L 10.496484 -8.822852 L 10.511523 -8.818555 L 10.526563 -8.814062 L 10.541602 -8.809375 L 10.587305 -8.795312 L 10.618164 -8.785547 L 10.633594 -8.780469 L 10.649219 -8.775391 L 10.664648 -8.770312 L 10.680469 -8.765039 L 10.696094 -8.759766 L 10.727734 -8.748828 L 10.74375 -8.743359 L 10.75957 -8.737695 L 10.775586 -8.732031 L 10.791797 -8.726172 L 10.807813 -8.720312 L 10.824023 -8.714453 L 10.840234 -8.708398 L 10.856445 -8.702148 L 10.872852 -8.696094 L 10.889258 -8.689648 L 10.905664 -8.683398 L 10.922266 -8.676953 L 10.938672 -8.670312 L 10.955273 -8.663672 L 10.97207 -8.657031 L 10.988672 -8.650195 L 11.005469 -8.643359 L 11.02207 -8.636328 L 11.039062 -8.629297 L 11.055859 -8.62207 L 11.072852 -8.614844 L 11.089648 -8.607422 L 11.106641 -8.6 L 11.123633 -8.592383 L 11.14082 -8.584766 L 11.157813 -8.576953 L 11.192188 -8.561328 L 11.209375 -8.55332 L 11.226758 -8.545117 L 11.243945 -8.536914 L 11.261328 -8.528711 L 11.278711 -8.520312 L 11.313477 -8.503125 L 11.330859 -8.494336 L 11.348438 -8.485547 L 11.36582 -8.476758 L 11.383398 -8.467773 L 11.418555 -8.449414 L 11.453711 -8.430664 L 11.471289 -8.421094 L 11.489063 -8.411523 L 11.506641 -8.401758 L 11.524414 -8.391992 L 11.559961 -8.37207 L 11.595508 -8.351758 L 11.613281 -8.341406 L 11.666602 -8.309766 L 11.68457 -8.299023 L 11.720117 -8.277148 L 11.738086 -8.266016 L 11.755859 -8.254883 L 11.773828 -8.243555 L 11.791602 -8.232031 L 11.80957 -8.220703 L 11.827539 -8.208984 L 11.845313 -8.197266 L 11.863281 -8.185352 L 11.881055 -8.173437 L 11.899023 -8.161523 L 11.916797 -8.149219 L 11.934766 -8.137109 L 11.952734 -8.124609 L 11.970508 -8.112109 L 11.988477 -8.099609 L 12.00625 -8.086914 L 12.024023 -8.074023 L 12.041992 -8.061133 L 12.059766 -8.048242 L 12.077539 -8.034961 L 12.095313 -8.021875 L 12.113281 -8.008398 L 12.148828 -7.981445 L 12.166406 -7.967773 L 12.201953 -7.940039 L 12.219531 -7.925977 L 12.237305 -7.911914 L 12.254883 -7.897656 L 12.272656 -7.883398 L 12.307813 -7.854492 L 12.325391 -7.839844 L 12.342773 -7.825 L 12.360352 -7.810156 L 12.377734 -7.795117 L 12.395313 -7.780078 L 12.430078 -7.749609 L 12.447461 -7.73418 L 12.464648 -7.71875 L 12.482031 -7.703125 L 12.533594 -7.655664 L 12.550781 -7.639648 L 12.567773 -7.623437 L 12.584961 -7.607227 L 12.618945 -7.574414 L 12.635742 -7.557812 L 12.652734 -7.541211 L 12.686328 -7.507617 L 12.703125 -7.490625 L 12.719727 -7.473437 L 12.736523 -7.45625 L 12.753125 -7.439062 L 12.769531 -7.42168 L 12.786133 -7.404102 L 12.818945 -7.368945 L 12.835156 -7.351172 L 12.851562 -7.333203 L 12.867773 -7.315234 L 12.883984 -7.29707 L 12.916016 -7.260742 L 12.932031 -7.242383 L 12.948047 -7.223828 L 12.963867 -7.205273 L 12.979688 -7.186523 L 12.995313 -7.167773 L 13.011133 -7.149023 L 13.026563 -7.130078 L 13.042188 -7.110937 L 13.073047 -7.072656 L 13.088477 -7.05332 L 13.103711 -7.033984 L 13.118945 -7.014453 L 13.133984 -6.994727 L 13.149023 -6.975195 L 13.164062 -6.955273 L 13.178906 -6.935547 L 13.19375 -6.91543 L 13.208594 -6.895508 L 13.223242 -6.875391 L 13.237891 -6.855078 L 13.266797 -6.814453 L 13.281055 -6.793945 L 13.295508 -6.773438 L 13.30957 -6.752734 L 13.323828 -6.732031 L 13.337891 -6.711328 L 13.365625 -6.669531 L 13.379492 -6.648438 L 13.393164 -6.627344 L 13.406836 -6.606055 L 13.433789 -6.563477 L 13.460352 -6.520508 L 13.473438 -6.499023 L 13.499609 -6.455664 L 13.525391 -6.411914 L 13.538086 -6.390039 L 13.575586 -6.323828 L 13.600195 -6.279297 L 13.612305 -6.257031 L 13.624414 -6.23457 L 13.648242 -6.189648 L 13.659961 -6.166992 L 13.671484 -6.144336 L 13.683203 -6.12168 L 13.717188 -6.053125 L 13.72832 -6.030078 L 13.761133 -5.960938 L 13.771875 -5.937695 L 13.803516 -5.867969 L 13.813672 -5.844531 L 13.824023 -5.821094 L 13.843945 -5.774219 L 13.853906 -5.750586 L 13.873438 -5.70332 L 13.882812 -5.679688 L 13.892383 -5.655859 L 13.901758 -5.632031 L 13.920117 -5.584375 L 13.929102 -5.560547 L 13.955469 -5.488477 L 13.963867 -5.464453 L 13.972461 -5.44043 L 13.980664 -5.416211 L 13.988867 -5.392187 L 13.99707 -5.367969 L 14.005078 -5.34375 L 14.020703 -5.295312 L 14.02832 -5.270898 L 14.035938 -5.24668 L 14.043359 -5.222266 L 14.050586 -5.198047 L 14.057813 -5.173633 L 14.071875 -5.124805 L 14.078711 -5.100195 L 14.085547 -5.075781 L 14.091992 -5.051367 L 14.098633 -5.026758 L 14.104883 -5.002344 L 14.111328 -4.977734 L 14.117383 -4.953125 L 14.123438 -4.928711 L 14.135156 -4.879492 L 14.146484 -4.830273 L 14.151953 -4.805664 L 14.1625 -4.756445 L 14.172656 -4.707227 L 14.177539 -4.682617 L 14.186914 -4.633398 L 14.191406 -4.608594 L 14.195898 -4.583984 L 14.200195 -4.559375 L 14.208398 -4.510156 L 14.216211 -4.460938 L 14.219922 -4.436328 L 14.226953 -4.387109 L 14.230273 -4.3625 L 14.233594 -4.338086 L 14.239844 -4.288867 L 14.242773 -4.264453 L 14.245508 -4.239844 L 14.248242 -4.21543 L 14.250781 -4.191016 L 14.25332 -4.166406 L 14.255664 -4.141992 L 14.259961 -4.093164 L 14.261914 -4.068945 L 14.263867 -4.044531 L 14.265625 -4.020312 L 14.267383 -3.995898 L 14.268945 -3.97168 L 14.27168 -3.923242 L 14.274023 -3.874805 L 14.275 -3.850781 L 14.275977 -3.826562 L 14.276758 -3.802539 L 14.27793 -3.754492 L 14.278516 -3.730664 L 14.278906 -3.706641 L 14.279297 -3.658984 L 14.279297 -3.611523 L 14.279102 -3.587695 L 14.27793 -3.516797 L 14.277344 -3.493359 L 14.276563 -3.469727 L 14.275 -3.422852 L 14.274023 -3.399609 L 14.27168 -3.353125 L 14.268945 -3.306641 L 14.267578 -3.283594 L 14.266016 -3.260547 L 14.264258 -3.2375 L 14.2625 -3.214648 L 14.256641 -3.146094 L 14.254492 -3.123437 L 14.249805 -3.078125 L 14.247266 -3.055664 L 14.244922 -3.033203 L 14.242188 -3.010742 L 14.236719 -2.966211 L 14.233789 -2.943945 L 14.230859 -2.921875 L 14.224609 -2.877734 L 14.214648 -2.812109 L 14.207617 -2.76875 L 14.203906 -2.74707 L 14.200195 -2.725586 L 14.196289 -2.704102 L 14.188477 -2.661523 L 14.180273 -2.618945 L 14.175977 -2.598047 L 14.17168 -2.576953 L 14.167383 -2.556055 L 14.162891 -2.535156 L 14.153906 -2.49375 L 14.149219 -2.473047 L 14.144336 -2.452539 L 14.139648 -2.432031 L 14.129883 -2.391406 L 14.114648 -2.331055 L 14.104102 -2.291211 L 14.098828 -2.271484 L 14.087891 -2.232031 L 14.082422 -2.2125 L 14.076758 -2.192969 L 14.071094 -2.173633 L 14.06543 -2.154492 L 14.059766 -2.135156 L 14.053906 -2.116211 L 14.048047 -2.09707 L 14.041992 -2.078125 L 14.036133 -2.059375 L 14.024023 -2.021875 L 14.017773 -2.00332 L 14.011719 -1.984961 L 13.999219 -1.948242 L 13.986328 -1.911914 L 13.980078 -1.893945 L 13.973438 -1.875977 L 13.960547 -1.84043 L 13.953906 -1.822656 L 13.947266 -1.805273 L 13.940625 -1.787695 L 13.933789 -1.770312 L 13.927148 -1.753125 L 13.913477 -1.71875 L 13.906641 -1.701953 L 13.899805 -1.684961 L 13.892773 -1.668164 L 13.885938 -1.651562 L 13.871875 -1.618359 L 13.864844 -1.601953 L 13.857813 -1.585742 L 13.850586 -1.569336 L 13.843555 -1.55332 L 13.836328 -1.537305 L 13.829297 -1.521289 L 13.82207 -1.505469 L 13.800391 -1.458594 L 13.792969 -1.443164 L 13.785742 -1.427734 L 13.778516 -1.4125 L 13.771094 -1.397461 L 13.763867 -1.382422 L 13.756445 -1.367383 L 13.741602 -1.337695 L 13.734375 -1.323047 L 13.712109 -1.279687 L 13.697266 -1.251172 L 13.682422 -1.223047 L 13.674805 -1.20918 L 13.667383 -1.195508 L 13.659961 -1.181641 L 13.637695 -1.141211 L 13.622852 -1.114648 L 13.608008 -1.088477 L 13.593164 -1.062695 L 13.57832 -1.037305 L 13.570898 -1.024805 L 13.563672 -1.012305 L 13.55625 -0.999805 L 13.548828 -0.9875 L 13.541602 -0.975391 L 13.53418 -0.963281 L 13.5125 -0.927539 L 13.498047 -0.904102 L 13.483594 -0.881055 L 13.476367 -0.869727 L 13.469336 -0.858398 L 13.462109 -0.847266 L 13.455078 -0.836133 L 13.433984 -0.80332 L 13.427148 -0.792578 L 13.420117 -0.781836 L 13.413281 -0.771289 L 13.40625 -0.760742 L 13.399414 -0.750391 L 13.392773 -0.740039 L 13.379102 -0.719727 L 13.372461 -0.70957 L 13.352539 -0.679688 L 13.346094 -0.669922 L 13.339453 -0.660352 L 13.326563 -0.641211 L 13.320312 -0.631836 L 13.313867 -0.622461 L 13.307617 -0.613086 L 13.295117 -0.594727 L 13.289062 -0.585742 L 13.282813 -0.576758 L 13.276758 -0.567773 L 13.270898 -0.558984 L 13.264844 -0.550195 L 13.258984 -0.541406 L 13.247266 -0.524219 L 13.241406 -0.51582 L 13.230078 -0.499023 L 13.224609 -0.49082 L 13.218945 -0.482617 L 13.213477 -0.474414 L 13.208008 -0.466406 L 13.197461 -0.450391 L 13.186914 -0.434766 L 13.181836 -0.426953 L 13.176758 -0.419336 L 13.17168 -0.411523 L 13.166797 -0.404102 L 13.161914 -0.396484 L 13.157031 -0.389062 L 13.152344 -0.381641 L 13.147656 -0.374414 L 13.142969 -0.366992 L 13.138477 -0.359766 L 13.133789 -0.352539 L 13.129492 -0.345508 L 13.125 -0.338477 L 13.120703 -0.331445 L 13.116602 -0.324414 L 13.112305 -0.317578 L 13.108203 -0.310742 L 13.096484 -0.290234 L 13.092578 -0.283594 L 13.088867 -0.276953 L 13.085156 -0.270508 L 13.081641 -0.263867 L 13.074609 -0.250977 L 13.067969 -0.238086 L 13.064648 -0.231836 L 13.061523 -0.225391 L 13.058398 -0.219141 L 13.055469 -0.212891 L 13.052539 -0.206836 L 13.049609 -0.200586 L 13.046875 -0.194531 L 13.044141 -0.188281 L 13.039062 -0.176172 L 13.036523 -0.170312 L 13.03418 -0.164258 L 13.031836 -0.158398 L 13.029688 -0.152344 L 13.025391 -0.140625 L 13.021484 -0.128906 L 13.019727 -0.123242 L 13.017969 -0.117383 L 13.016211 -0.111719 L 13.014648 -0.105859 L 13.013086 -0.100195 L 13.010352 -0.0888672 L 13.006836 -0.071875 L 13.004883 -0.0605469 L 13.004102 -0.0548828 L 13.00332 -0.0494141 L 13.002539 -0.04375 L 13.001953 -0.0382812 L 13.001367 -0.0326172 L 13.000977 -0.0271484 L 13.000586 -0.0214844 L 13.000391 -0.0160156 L 13.000195 -0.0103516 L 13 -0.00488281 L 13 0.00078125 " transform="matrix(20, 0, 0, 20, 300, 300)"/>
</svg>
