<?xml version="1.0" encoding="UTF-8" standalone="no"?>
<svg
   viewBox="0 0 320 512"
   version="1.1"
   id="svg4"
   sodipodi:docname="temperature-half-solid_coloured.svg"
   inkscape:version="1.1.1 (3bf5ae0d25, 2021-09-20)"
   xmlns:inkscape="http://www.inkscape.org/namespaces/inkscape"
   xmlns:sodipodi="http://sodipodi.sourceforge.net/DTD/sodipodi-0.dtd"
   xmlns="http://www.w3.org/2000/svg"
   xmlns:svg="http://www.w3.org/2000/svg">
  <defs
     id="defs8" />
  <sodipodi:namedview
     id="namedview6"
     pagecolor="#ffffff"
     bordercolor="#666666"
     borderopacity="1.0"
     inkscape:pageshadow="2"
     inkscape:pageopacity="0.0"
     inkscape:pagecheckerboard="0"
     showgrid="false"
     inkscape:zoom="1.6445312"
     inkscape:cx="160.22803"
     inkscape:cy="256.30404"
     inkscape:window-width="1920"
     inkscape:window-height="1027"
     inkscape:window-x="-8"
     inkscape:window-y="-8"
     inkscape:window-maximized="1"
     inkscape:current-layer="svg4" />
  <!--! Font Awesome Pro 6.1.1 by @fontawesome - https://fontawesome.com License - https://fontawesome.com/license (Commercial License) Copyright 2022 Fonticons, Inc. -->
  <path
     d="M176 322.9l.0002-114.9c0-8.75-7.25-16-16-16s-15.1 7.25-15.1 16L144 322.9c-18.62 6.625-32 24.25-32 45.13c0 26.5 21.5 48 48 48s48-21.5 48-48C208 347.1 194.6 329.5 176 322.9zM272 278.5V112c0-61.87-50.12-112-111.1-112S48 50.13 48 112v166.5c-19.75 24.75-32 55.5-32 89.5c0 79.5 64.5 143.1 144 143.1S304 447.5 304 368C304 334 291.8 303.1 272 278.5zM160 448c-44.13 0-80-35.87-80-79.1c0-25.5 12.25-48.88 32-63.75v-192.3c0-26.5 21.5-48 48-48s48 21.5 48 48v192.3c19.75 14.75 32 38.25 32 63.75C240 412.1 204.1 448 160 448z"
     id="path2"
     style="fill:#0000ff" />
  <path
     style="fill:#ff0000;stroke-width:0.608076"
     d="m 153.63422,415.30662 c -11.60375,-1.61704 -23.08014,-8.07851 -30.52118,-17.18411 -3.77103,-4.61463 -8.08529,-13.24406 -9.49254,-18.98712 -1.5764,-6.43337 -1.44236,-16.94267 0.29407,-23.05536 1.66752,-5.87011 4.83537,-12.33413 8.17165,-16.67428 4.94937,-6.4386 13.73767,-13.17174 20.05155,-15.36244 l 2.28028,-0.79119 0.0714,-22.52867 c 0.0393,-12.39077 0.24973,-39.22036 0.46768,-59.62131 0.43645,-40.85198 0.25795,-39.05586 4.3439,-43.7095 5.87608,-6.69249 15.16884,-6.7664 21.58108,-0.17164 1.86346,1.91649 3.34435,4.11531 3.80048,5.6429 0.56863,1.90438 0.74733,16.55207 0.74733,61.2576 v 58.75475 l 3.8839,1.76105 c 11.00449,4.98967 20.5446,14.92379 25.01971,26.05303 6.60772,16.43286 2.8775,36.33671 -9.26865,49.456 -10.48212,11.32194 -26.61429,17.22502 -41.43067,15.16029 z"
     id="path234" />
</svg>
